<?xml version="1.0" standalone="no"?>
<!DOCTYPE svg PUBLIC "-//W3C//DTD SVG 20010904//EN"
 "http://www.w3.org/TR/2001/REC-SVG-20010904/DTD/svg10.dtd">
<svg version="1.0" xmlns="http://www.w3.org/2000/svg"
 width="984.000000pt" height="984.000000pt" viewBox="0 0 984.000000 984.000000"
 preserveAspectRatio="xMidYMid meet">
<metadata>
Created by potrace 1.11, written by Peter Selinger 2001-2013
</metadata>
<g transform="translate(0.000000,984.000000) scale(0.100000,-0.100000)"
fill="#000000" stroke="none">
<path d="M0 4920 l0 -4920 4920 0 4920 0 0 4920 0 4920 -4920 0 -4920 0 0
-4920z m5155 4419 c94 -11 243 -24 333 -28 156 -8 164 -10 203 -37 84 -59 95
-65 155 -83 33 -11 105 -24 160 -31 92 -10 109 -16 239 -80 210 -103 509 -306
745 -506 111 -93 355 -344 451 -464 185 -230 301 -435 433 -769 169 -425 209
-677 210 -1319 0 -343 -1 -364 -18 -374 -45 -25 -57 -47 -51 -92 8 -51 -5
-108 -47 -199 -25 -58 -31 -86 -37 -181 -7 -112 -7 -112 -63 -217 -31 -57 -72
-147 -93 -199 -46 -121 -88 -195 -165 -294 -33 -44 -77 -110 -97 -148 -77
-146 -387 -459 -760 -766 -132 -108 -373 -233 -692 -358 -128 -50 -256 -86
-393 -109 -51 -9 -125 -22 -165 -30 -40 -8 -75 -15 -78 -15 -3 0 -3 24 0 53 7
68 65 227 83 227 10 0 12 -8 7 -29 -15 -70 28 -151 80 -151 24 0 25 2 13 22
-6 13 -14 55 -17 93 -6 67 -7 70 -32 73 -19 2 -28 10 -31 27 -5 25 -2 34 50
115 l36 55 11 -44 c6 -27 21 -52 36 -64 25 -18 28 -18 58 -3 29 15 32 15 38 0
3 -9 2 -19 -3 -23 -5 -3 -20 -21 -33 -40 -23 -33 -23 -35 -6 -48 22 -16 27
-16 57 -3 41 18 81 45 92 62 13 21 -18 60 -40 51 -8 -3 -24 3 -34 12 -11 10
-23 15 -26 12 -10 -9 -61 20 -78 44 -9 14 -12 33 -9 56 4 23 2 38 -7 43 -16
10 190 219 285 292 82 62 289 181 298 171 3 -3 14 0 24 7 16 10 16 11 1 6 -38
-12 -13 12 75 71 128 86 309 253 493 456 173 191 229 269 309 432 228 468 317
1091 224 1572 -42 217 -132 480 -235 686 -182 362 -487 711 -812 928 -56 38
-178 107 -270 153 -92 47 -211 112 -265 146 -164 103 -264 134 -308 94 -19
-17 -22 -17 -72 4 -116 48 -182 56 -492 56 -436 0 -685 -39 -985 -156 -177
-68 -269 -122 -315 -184 -43 -56 -95 -84 -161 -84 -28 0 -42 -11 -106 -82 -40
-46 -157 -166 -260 -268 -204 -203 -263 -281 -365 -485 -103 -204 -160 -347
-228 -575 -24 -80 -55 -176 -69 -215 -53 -147 -55 -411 -6 -793 27 -210 54
-331 106 -486 150 -441 468 -871 859 -1163 105 -78 131 -108 114 -130 -6 -7
-8 -17 -4 -23 10 -16 25 -2 18 16 -5 14 -1 15 28 9 82 -17 173 -54 299 -118
230 -119 269 -137 374 -172 105 -36 136 -42 136 -25 0 20 50 9 117 -26 l68
-36 142 12 c134 12 267 7 277 -9 5 -7 -39 -80 -54 -91 -4 -3 -26 -41 -50 -85
-23 -44 -49 -91 -56 -105 -7 -14 -25 -54 -39 -90 -15 -36 -33 -80 -41 -98 -8
-18 -23 -69 -33 -115 l-18 -82 -64 2 c-105 4 -222 23 -434 69 -260 58 -330 77
-448 125 -149 60 -202 89 -332 184 -66 49 -156 105 -200 126 -211 102 -588
431 -808 704 -110 136 -236 326 -311 466 -63 119 -129 310 -181 526 -39 162
-52 198 -93 250 -39 50 -49 83 -68 243 -13 99 -17 221 -18 455 -1 285 1 337
22 473 70 471 238 902 507 1307 164 247 312 414 555 625 397 347 608 476 889
544 153 38 187 53 196 89 5 19 30 29 187 76 180 54 182 54 303 52 78 -1 179 5
276 18 271 36 289 36 504 10z m1349 -5025 c27 -10 -235 -212 -425 -329 -45
-27 -94 -61 -108 -75 -14 -14 -51 -45 -82 -68 -90 -67 -249 -238 -333 -357
-141 -200 -235 -434 -236 -587 0 -94 37 -159 270 -472 69 -94 142 -183 161
-197 19 -14 79 -52 134 -84 70 -40 123 -81 177 -136 69 -69 85 -93 142 -211
131 -270 163 -418 153 -698 -6 -171 -19 -233 -84 -410 -38 -104 -39 -105 -93
-138 -116 -69 -245 -87 -380 -53 -126 31 -201 72 -292 159 -202 193 -292 417
-308 762 l-7 165 -77 135 c-80 141 -117 228 -162 377 -23 73 -27 108 -28 208
-1 139 13 181 85 259 23 26 40 48 38 49 -2 2 -70 24 -150 50 -170 55 -159 41
-159 203 0 194 68 440 185 675 190 377 542 647 953 728 172 34 578 63 626 45z
m945 -356 c54 -40 108 -86 119 -103 13 -19 32 -87 52 -188 31 -163 41 -309 30
-482 l-5 -80 64 -7 c208 -23 352 -161 406 -389 42 -180 -12 -413 -118 -511
-36 -33 -41 -42 -41 -85 -1 -44 1 -48 21 -45 17 2 20 -1 16 -18 -3 -11 -12
-20 -19 -20 -9 0 -14 -11 -14 -27 0 -67 -12 -98 -46 -120 -34 -22 -61 -13 -31
10 18 14 29 59 21 81 -9 22 -31 20 -37 -4 -3 -14 -14 -20 -31 -20 -33 0 -35
27 -3 35 19 5 22 13 24 58 2 47 6 55 43 89 33 29 40 42 35 59 -6 17 -13 20
-34 16 -51 -11 -83 -28 -88 -48 -3 -11 -21 -26 -39 -34 -37 -15 -41 -31 -23
-83 7 -22 7 -36 -1 -51 -9 -19 -8 -21 15 -21 31 0 31 -5 0 -42 -34 -40 -32
-56 6 -50 25 4 31 0 36 -17 5 -18 10 -21 34 -16 41 9 89 -3 89 -22 0 -9 -15
-44 -34 -77 -20 -35 -47 -112 -65 -181 -88 -337 -266 -528 -491 -528 -187 0
-344 125 -470 376 -123 244 -166 482 -135 752 27 239 70 367 173 511 95 134
182 185 325 192 80 4 90 7 105 29 9 14 36 47 60 74 23 27 42 52 42 56 0 3 -37
74 -82 157 -151 281 -243 435 -306 514 -19 24 -31 47 -26 51 95 83 283 252
293 265 7 9 17 16 22 16 5 0 53 -33 108 -72z m-1470 -1643 c262 -62 483 -317
573 -660 29 -111 32 -133 32 -290 1 -156 -1 -179 -28 -279 -27 -105 -111 -296
-129 -296 -5 0 -7 10 -3 23 43 172 46 480 7 652 -64 277 -161 473 -306 621
-87 89 -168 141 -292 191 -88 34 -94 39 -68 44 54 12 149 9 214 -6z m1861
-196 c7 -11 10 -23 7 -25 -6 -6 -37 25 -37 37 0 17 19 9 30 -12z m17 -235 c-9
-9 -28 6 -21 18 4 6 10 6 17 -1 6 -6 8 -13 4 -17z m94 -27 c-8 -8 -11 -7 -11
4 0 20 13 34 18 19 3 -7 -1 -17 -7 -23z"/>
<path d="M5073 9133 c-18 -6 -16 -43 1 -43 22 0 39 26 24 37 -7 6 -19 8 -25 6z"/>
<path d="M5226 9125 c-6 -17 17 -31 34 -20 5 3 10 13 10 21 0 19 -36 18 -44
-1z"/>
<path d="M5758 9083 c-19 -5 -24 -28 -9 -37 16 -10 41 5 41 25 0 19 -2 20 -32
12z"/>
<path d="M4617 9033 c-16 -15 -6 -34 15 -31 29 4 38 38 10 38 -10 0 -22 -3
-25 -7z"/>
<path d="M5154 8935 c-3 -8 -3 -19 1 -25 9 -14 45 6 45 25 0 19 -39 19 -46 0z"/>
<path d="M2540 7775 c-7 -8 -10 -22 -6 -30 4 -13 10 -14 26 -5 23 13 25 23 6
39 -10 9 -16 8 -26 -4z"/>
<path d="M2260 7715 c0 -8 5 -15 10 -15 6 0 10 7 10 15 0 8 -4 15 -10 15 -5 0
-10 -7 -10 -15z"/>
<path d="M2196 7673 c-12 -30 41 -46 64 -18 16 20 4 35 -30 35 -17 0 -30 -7
-34 -17z"/>
<path d="M2399 7648 c0 -2 -2 -16 -4 -33 -2 -16 -6 -42 -10 -57 -6 -21 -3 -29
15 -38 26 -14 44 4 60 61 14 49 5 69 -31 69 -16 0 -29 -1 -30 -2z"/>
<path d="M2196 7501 c-15 -16 -15 -19 -1 -31 13 -11 19 -11 31 2 8 8 12 22 8
31 -8 22 -17 21 -38 -2z"/>
<path d="M2338 7463 c-17 -20 -14 -43 7 -43 7 0 18 7 25 16 11 12 11 18 -2 30
-13 13 -16 13 -30 -3z"/>
<path d="M7293 7455 c-3 -9 -3 -18 0 -21 10 -10 47 7 47 22 0 19 -39 18 -47
-1z"/>
<path d="M2114 7366 c-7 -19 3 -36 22 -36 10 0 14 8 12 22 -4 26 -26 36 -34
14z"/>
<path d="M2223 7251 c-19 -30 8 -48 31 -22 18 20 14 41 -7 41 -7 0 -18 -9 -24
-19z"/>
<path d="M2330 7205 c-13 -15 -7 -45 8 -45 16 0 34 29 28 45 -7 19 -20 19 -36
0z"/>
<path d="M2090 7190 c-14 -26 -4 -57 20 -65 29 -9 58 -51 65 -95 4 -22 10 -40
14 -40 3 0 21 13 39 29 55 51 41 93 -52 155 -63 42 -71 43 -86 16z"/>
<path d="M7430 7150 c0 -23 22 -27 39 -7 13 16 5 27 -21 27 -11 0 -18 -7 -18
-20z"/>
<path d="M7547 7073 c-10 -9 -9 -43 1 -43 18 0 45 28 38 38 -8 13 -29 16 -39
5z"/>
<path d="M2056 6994 c-21 -20 -16 -39 10 -39 21 0 32 31 16 47 -6 6 -15 3 -26
-8z"/>
<path d="M7510 6970 c-18 -18 -27 -40 -16 -40 12 0 76 43 76 51 0 17 -40 9
-60 -11z"/>
<path d="M2157 6973 c-4 -3 -7 -13 -7 -21 0 -9 -7 -24 -17 -34 -9 -10 -12 -18
-6 -18 11 0 53 55 53 70 0 11 -13 13 -23 3z"/>
<path d="M2173 6859 c-13 -13 -6 -39 11 -39 22 0 37 17 30 33 -7 20 -25 22
-41 6z"/>
<path d="M2130 6715 c-22 -26 12 -49 37 -24 14 14 6 39 -12 39 -7 0 -18 -7
-25 -15z"/>
<path d="M2286 6631 c-14 -15 -14 -20 -3 -29 19 -16 50 7 41 31 -8 22 -17 22
-38 -2z"/>
<path d="M2040 6605 c-13 -15 -7 -45 8 -45 16 0 34 29 28 45 -7 19 -20 19 -36
0z"/>
<path d="M2345 6559 c-8 -25 -1 -34 20 -26 19 8 20 47 1 47 -8 0 -18 -9 -21
-21z"/>
<path d="M2152 6542 c-15 -17 -19 -28 -12 -30 17 -6 60 19 71 40 16 30 -32 21
-59 -10z"/>
<path d="M1960 6430 c0 -12 9 -24 23 -29 26 -10 32 0 17 28 -14 27 -40 27 -40
1z"/>
<path d="M1890 6385 c-10 -12 -10 -19 -2 -27 16 -16 42 -2 42 22 0 24 -22 26
-40 5z"/>
<path d="M7940 6310 c0 -23 5 -30 19 -30 53 0 67 27 24 48 -39 17 -43 16 -43
-18z"/>
<path d="M7740 6294 c-48 -17 -90 -38 -90 -46 0 -4 14 -23 31 -40 17 -18 34
-39 39 -47 7 -13 12 -12 34 2 14 10 26 24 26 32 0 21 34 19 53 -3 28 -31 20
-50 -48 -103 -36 -28 -65 -55 -65 -59 0 -5 10 -16 22 -24 21 -15 24 -14 58 17
19 19 56 46 81 60 69 39 71 66 6 82 -15 4 -27 9 -27 12 0 2 12 15 28 28 22 19
25 27 16 42 -6 10 -22 23 -35 30 -29 14 -108 24 -129 17z"/>
<path d="M7970 6195 c0 -18 5 -25 20 -25 21 0 24 8 14 34 -10 25 -34 19 -34
-9z"/>
<path d="M2121 6074 c-26 -19 -15 -39 16 -27 14 6 18 14 14 26 -6 16 -8 16
-30 1z"/>
<path d="M7922 6037 c-22 -23 -29 -47 -14 -47 13 0 72 40 72 49 0 7 -22 21
-34 21 -1 0 -12 -10 -24 -23z"/>
<path d="M7555 6030 c-5 -15 0 -29 16 -46 32 -35 39 -30 26 18 -14 47 -32 59
-42 28z"/>
<path d="M7647 6043 c-10 -9 -9 -43 1 -43 12 0 32 23 32 37 0 14 -22 18 -33 6z"/>
<path d="M7964 5966 c-3 -8 -4 -22 -2 -32 3 -14 6 -14 28 5 21 17 23 22 10 31
-21 13 -30 12 -36 -4z"/>
<path d="M7744 5926 c-34 -35 -53 -46 -77 -47 -47 0 -102 -22 -102 -39 0 -19
42 -40 80 -40 43 0 75 25 75 58 0 26 2 27 38 24 29 -3 42 1 60 21 28 30 25 61
-6 65 -16 3 -36 -10 -68 -42z"/>
<path d="M7857 5876 c-3 -8 -3 -17 0 -20 7 -7 33 13 33 25 0 15 -27 10 -33 -5z"/>
<path d="M7803 5825 c-37 -16 -37 -14 -23 -49 18 -49 80 -17 80 41 0 26 -12
28 -57 8z"/>
<path d="M7650 5740 c-6 -12 -9 -24 -7 -27 9 -8 48 18 44 30 -6 20 -25 19 -37
-3z"/>
<path d="M2240 5523 c-21 -8 -50 -34 -50 -46 0 -15 63 1 77 20 19 25 6 38 -27
26z"/>
<path d="M2156 5371 c-20 -22 -14 -41 14 -41 24 0 31 11 23 38 -7 27 -15 28
-37 3z"/>
<path d="M2080 5329 c0 -11 5 -17 10 -14 6 3 10 13 10 21 0 8 -4 14 -10 14 -5
0 -10 -9 -10 -21z"/>
<path d="M2044 5285 c-15 -12 -16 -16 -5 -24 7 -5 22 -6 33 -3 13 3 24 -1 30
-12 11 -20 38 -21 38 -1 0 8 -11 17 -25 21 -14 3 -25 12 -25 20 0 18 -21 18
-46 -1z"/>
<path d="M2180 5275 c0 -8 5 -15 10 -15 6 0 10 7 10 15 0 8 -4 15 -10 15 -5 0
-10 -7 -10 -15z"/>
<path d="M2266 5275 c-11 -28 -7 -35 20 -35 21 0 25 4 22 22 -4 27 -33 36 -42
13z"/>
<path d="M2163 5243 c-20 -7 -15 -23 7 -23 11 0 20 4 20 9 0 13 -12 19 -27 14z"/>
<path d="M2096 5211 c-4 -7 -5 -15 -2 -18 9 -9 19 4 14 18 -4 11 -6 11 -12 0z"/>
<path d="M2496 5091 c-19 -21 -14 -41 8 -41 8 0 19 7 26 16 11 12 11 18 -2 30
-13 13 -16 12 -32 -5z"/>
<path d="M2246 4804 c-21 -20 -16 -39 10 -39 21 0 32 31 16 47 -6 6 -15 3 -26
-8z"/>
<path d="M7155 4706 c-27 -20 -6 -44 25 -30 18 8 19 12 8 27 -12 16 -15 16
-33 3z"/>
<path d="M2323 4651 c-10 -16 -9 -22 3 -32 12 -10 18 -9 31 4 17 17 11 47 -9
47 -7 0 -19 -9 -25 -19z"/>
<path d="M2640 4599 c0 -11 5 -17 10 -14 6 3 10 13 10 21 0 8 -4 14 -10 14 -5
0 -10 -9 -10 -21z"/>
<path d="M2595 4563 c-11 -3 -31 -9 -44 -14 -23 -9 -23 -10 -6 -29 10 -11 30
-20 44 -20 14 0 40 -9 58 -20 42 -25 48 -12 21 44 -22 44 -32 49 -73 39z"/>
<path d="M2330 4506 c0 -15 7 -26 20 -29 23 -6 28 21 8 41 -18 18 -28 14 -28
-12z"/>
<path d="M2428 4473 c-17 -20 -13 -43 7 -43 19 0 36 25 29 44 -8 21 -17 20
-36 -1z"/>
<path d="M2357 4413 c-12 -11 -8 -43 6 -43 22 0 40 18 34 34 -6 16 -28 21 -40
9z"/>
<path d="M7245 4270 c-14 -15 -16 -23 -7 -32 15 -15 42 -2 42 21 0 29 -15 33
-35 11z"/>
<path d="M2968 4126 c-34 -25 -14 -49 21 -27 9 6 10 14 5 24 -8 13 -12 13 -26
3z"/>
<path d="M2996 4001 c-19 -21 -8 -35 18 -25 16 6 23 44 8 44 -5 0 -17 -9 -26
-19z"/>
<path d="M3213 3993 c-16 -6 -17 -29 -3 -38 13 -8 40 13 40 31 0 14 -14 17
-37 7z"/>
<path d="M3320 3977 c-31 -15 -52 -35 -66 -62 -19 -36 -24 -40 -57 -39 -41 1
-41 1 -27 -25 14 -28 35 -32 82 -15 53 18 104 66 119 112 16 48 2 56 -51 29z"/>
<path d="M3084 3949 c-10 -16 11 -32 34 -24 13 4 19 12 15 21 -6 16 -39 19
-49 3z"/>
<path d="M3484 3899 c-9 -15 12 -33 30 -26 9 4 16 13 16 22 0 17 -35 21 -46 4z"/>
<path d="M3383 3824 c-3 -8 0 -21 6 -27 10 -9 16 -8 26 7 8 10 12 23 9 27 -9
15 -34 10 -41 -7z"/>
<path d="M3104 3785 c-15 -10 -16 -16 -7 -26 14 -15 43 -5 43 15 0 22 -15 27
-36 11z"/>
<path d="M5962 3758 c-14 -14 -16 -48 -4 -48 5 0 16 8 26 19 14 15 14 20 3 29
-10 9 -17 8 -25 0z"/>
<path d="M3687 3747 c-30 -23 -24 -39 16 -41 30 -2 37 0 37 15 0 26 -33 42
-53 26z"/>
<path d="M3590 3723 c-24 -9 -50 -35 -44 -44 7 -11 55 0 73 16 7 7 10 18 7 24
-8 12 -13 12 -36 4z"/>
<path d="M5805 3710 c-14 -15 -16 -23 -7 -32 13 -13 42 6 42 28 0 22 -17 24
-35 4z"/>
<path d="M5904 3706 c-5 -6 -41 -39 -80 -73 -68 -62 -69 -63 -38 -63 43 0 72
-41 54 -75 -12 -23 -7 -75 8 -75 24 1 32 18 22 44 -5 15 -10 31 -10 36 0 13
32 21 44 11 6 -5 32 -7 59 -4 50 6 49 5 32 58 -3 11 -23 32 -45 47 -39 27 -50
54 -30 74 5 5 6 14 2 20 -5 9 -10 9 -18 0z"/>
<path d="M3644 3645 c-8 -21 3 -34 26 -28 27 7 27 43 0 43 -11 0 -23 -7 -26
-15z"/>
<path d="M6291 3642 c-6 -11 -11 -25 -11 -31 0 -16 26 -13 40 5 11 12 11 18
-2 31 -15 14 -17 13 -27 -5z"/>
<path d="M5997 3634 c-7 -7 -10 -44 -3 -44 19 0 66 25 63 34 -4 13 -49 20 -60
10z"/>
<path d="M6137 3603 c-10 -9 -8 -53 2 -53 5 0 14 7 21 15 20 24 -2 59 -23 38z"/>
<path d="M3877 3593 c-14 -13 -6 -33 12 -33 21 0 45 23 34 33 -8 9 -38 9 -46
0z"/>
<path d="M5735 3549 c-4 -6 -5 -13 -2 -16 7 -7 27 6 27 18 0 12 -17 12 -25 -2z"/>
<path d="M5946 3433 c-4 -5 -20 -8 -34 -8 -35 0 -44 -19 -12 -23 13 -2 42 -18
63 -34 33 -27 42 -29 63 -20 13 7 24 20 24 31 0 37 -79 78 -104 54z"/>
<path d="M6157 3393 c-4 -3 -7 -18 -7 -32 l0 -25 21 21 c12 11 18 26 15 32 -8
12 -19 14 -29 4z"/>
<path d="M5630 3351 c0 -11 -3 -26 -6 -35 -10 -26 25 -32 49 -8 20 21 20 22 2
42 -23 25 -45 26 -45 1z"/>
<path d="M5935 3326 c-26 -19 -8 -39 31 -34 21 2 29 8 29 23 0 25 -33 31 -60
11z"/>
<path d="M5668 3234 c-38 -20 -35 -42 6 -59 19 -8 37 -20 40 -27 5 -11 7 -11
12 0 3 7 17 26 31 43 14 16 22 36 19 44 -7 20 -72 19 -108 -1z"/>
<path d="M5092 2500 c-31 -30 -37 -60 -37 -200 1 -123 2 -127 49 -265 48 -141
80 -209 117 -254 25 -31 31 -24 60 74 28 92 67 168 129 250 27 36 50 73 50 81
0 25 -100 166 -165 230 -102 103 -158 126 -203 84z"/>
<path d="M5510 1799 c0 -15 39 -69 50 -69 20 0 19 35 -1 57 -24 24 -49 31 -49
12z"/>
<path d="M5400 1752 c0 -12 23 -32 37 -32 7 0 13 9 13 20 0 15 -7 20 -25 20
-14 0 -25 -4 -25 -8z"/>
<path d="M5590 1695 c0 -22 37 -38 44 -19 10 27 7 34 -19 34 -15 0 -25 -6 -25
-15z"/>
<path d="M5435 1674 c-29 -8 -39 -16 -37 -29 2 -9 -4 -25 -13 -35 -36 -39 -28
-138 9 -124 20 8 27 -23 20 -89 -6 -54 -11 -64 -51 -103 -46 -43 -52 -68 -22
-87 25 -16 133 40 137 71 2 14 -1 21 -9 20 -6 -2 -21 12 -31 30 -31 51 -1 42
35 -11 12 -18 14 -18 50 -1 42 20 48 46 22 108 -14 32 -14 40 -1 65 15 27 14
28 -8 24 -37 -7 -39 13 -6 58 16 23 30 50 30 60 0 16 -3 17 -24 7 -32 -14 -54
-5 -58 24 -3 23 -5 23 -43 12z m6 -59 c-1 -15 -24 -12 -29 3 -3 9 2 13 12 10
10 -1 17 -7 17 -13z m23 -71 c24 -9 19 -33 -10 -44 -14 -6 -29 -10 -34 -10
-16 0 -19 30 -4 45 17 17 25 18 48 9z"/>
<path d="M5304 1655 c-17 -27 -13 -55 9 -55 19 0 70 56 63 69 -13 20 -55 12
-72 -14z"/>
<path d="M5577 1553 c-4 -3 -7 -11 -7 -17 0 -6 5 -5 12 2 6 6 9 14 7 17 -3 3
-9 2 -12 -2z"/>
<path d="M5600 1437 c0 -22 35 -97 44 -94 14 5 12 63 -4 82 -11 13 -40 21 -40
12z"/>
<path d="M5258 1405 c-6 -29 -1 -31 30 -9 29 20 28 34 -2 34 -17 0 -25 -7 -28
-25z"/>
<path d="M5579 1287 c-1 -7 -1 -17 0 -24 3 -20 -68 -60 -145 -82 -86 -25 -122
-57 -103 -92 l12 -23 9 24 c6 17 12 20 20 12 8 -8 8 -15 -2 -27 -10 -12 -10
-18 0 -30 18 -21 46 -3 60 40 6 19 15 35 19 35 19 0 42 -41 51 -91 12 -66 33
-86 66 -64 29 19 34 19 34 1 0 -8 -10 -16 -22 -18 -20 -3 -23 -9 -23 -49 0
-25 -6 -53 -14 -63 -13 -15 -13 -19 0 -27 20 -12 36 -11 68 6 47 24 56 80 19
115 l-23 22 25 -4 c19 -2 31 -16 52 -58 l27 -55 50 -1 c49 -1 71 11 32 18 -17
3 -17 6 -4 51 13 46 15 48 44 42 18 -4 29 -3 29 4 0 6 -11 11 -24 11 -27 0
-32 8 -41 73 -8 51 -25 72 -54 64 -10 -2 -26 0 -35 5 -10 6 -16 5 -16 -2 0 -5
7 -10 15 -10 19 0 37 -35 33 -63 -3 -19 -9 -22 -53 -22 -27 0 -61 -4 -74 -9
-23 -8 -23 -7 -16 30 3 21 16 56 28 77 12 22 28 50 35 63 18 33 7 59 -31 75
-42 16 -42 16 -28 33 9 11 8 15 -4 20 -8 3 -16 0 -16 -7z m-10 -125 c7 -14 6
-25 -5 -41 -22 -31 -37 -22 -38 22 -1 29 3 37 16 37 10 0 22 -8 27 -18z m181
-226 c0 -22 -33 -29 -47 -10 -18 25 2 48 28 33 10 -5 19 -16 19 -23z"/>
<path d="M5890 905 c-11 -13 -11 -19 3 -33 15 -15 19 -15 32 -1 14 14 14 17
-3 32 -17 16 -20 16 -32 2z"/>
<path d="M5461 877 c-17 -17 -13 -41 9 -54 20 -13 50 -8 50 9 0 34 -39 65 -59
45z"/>
<path d="M5616 743 c-9 -9 -7 -41 3 -47 14 -9 41 4 41 20 0 15 -34 37 -44 27z"/>
<path d="M5730 732 c0 -28 47 -69 62 -54 9 9 5 19 -17 42 -33 34 -45 38 -45
12z"/>
<path d="M5535 700 c-8 -14 33 -70 51 -70 8 0 14 8 14 18 0 22 -56 66 -65 52z"/>
<path d="M5637 656 c-3 -8 0 -21 6 -30 11 -15 15 -15 32 -2 16 12 17 16 6 30
-17 20 -37 21 -44 2z"/>
<path d="M7615 2957 c-71 -24 -185 -96 -185 -117 0 -18 146 -114 192 -126 56
-15 88 -38 88 -64 0 -21 35 -54 49 -46 19 12 75 -84 131 -225 18 -45 18 -45
-3 -45 -14 1 -26 -9 -35 -26 -22 -46 -45 -31 -61 41 -5 24 -15 48 -23 52 -21
13 -52 -15 -60 -55 -4 -21 -20 -53 -34 -71 -31 -40 -28 -64 8 -84 24 -14 31
-13 75 6 26 11 75 29 107 39 65 21 81 39 45 52 -16 6 -19 11 -10 16 7 5 20 1
30 -8 16 -15 19 -15 34 2 52 58 80 211 58 327 -24 128 -115 261 -212 310 -59
30 -140 39 -194 22z m152 -697 c0 -32 -23 -42 -33 -15 -8 20 2 45 19 45 9 0
14 -11 14 -30z"/>
<path d="M7636 2661 c-9 -15 23 -36 36 -23 5 5 7 15 4 21 -9 13 -33 14 -40 2z"/>
<path d="M7540 2622 c0 -10 43 -52 53 -52 14 0 7 27 -11 43 -20 18 -42 22 -42
9z"/>
<path d="M7662 2594 c2 -11 11 -20 22 -22 13 -3 17 1 14 14 -2 11 -11 20 -22
22 -13 3 -17 -1 -14 -14z"/>
<path d="M7699 2512 c-20 -10 -35 -26 -37 -39 -4 -27 35 -65 63 -61 16 2 20 9
17 40 -1 20 2 39 8 43 5 3 10 10 10 15 0 17 -29 18 -61 2z"/>
<path d="M7530 2500 c0 -5 5 -10 10 -10 6 0 10 5 10 10 0 6 -4 10 -10 10 -5 0
-10 -4 -10 -10z"/>
<path d="M7573 2503 c-7 -2 -13 -11 -13 -19 0 -8 -7 -28 -15 -44 -13 -26 -14
-37 -2 -82 10 -42 18 -54 35 -56 19 -3 21 1 19 35 -2 38 -2 38 32 35 40 -4 81
5 81 18 0 5 -12 15 -27 22 -15 7 -36 31 -47 53 -20 39 -38 49 -63 38z m53 -74
c11 -18 -13 -34 -31 -19 -8 7 -15 16 -15 21 0 13 38 11 46 -2z"/>
<path d="M7770 2503 c0 -21 28 -46 44 -40 27 10 15 42 -17 45 -15 2 -27 -1
-27 -5z"/>
<path d="M7077 2458 c-72 -69 -104 -173 -114 -373 -9 -186 24 -365 103 -573
59 -152 167 -249 249 -222 128 42 182 283 140 630 -20 167 -47 269 -94 366
-91 183 -201 250 -284 172z m139 -116 c63 -61 143 -288 166 -469 10 -79 9
-115 -6 -236 -24 -200 -62 -271 -124 -237 -64 36 -139 192 -178 373 -26 120
-14 489 17 550 35 68 70 73 125 19z"/>
<path d="M7435 2481 c-8 -15 3 -31 21 -31 9 0 14 7 12 17 -4 20 -24 28 -33 14z"/>
<path d="M7490 2420 c0 -5 7 -10 16 -10 8 0 12 5 9 10 -3 6 -10 10 -16 10 -5
0 -9 -4 -9 -10z"/>
<path d="M7615 2300 c3 -5 8 -10 11 -10 2 0 4 5 4 10 0 6 -5 10 -11 10 -5 0
-7 -4 -4 -10z"/>
<path d="M7705 2161 c-6 -11 9 -23 19 -14 9 9 7 23 -3 23 -6 0 -12 -4 -16 -9z"/>
<path d="M7660 2086 c0 -25 23 -56 41 -56 5 0 2 16 -6 36 -8 20 -15 38 -15 40
0 2 -4 4 -10 4 -5 0 -10 -11 -10 -24z"/>
<path d="M7674 1849 c-9 -16 12 -33 31 -25 14 5 15 9 5 21 -15 18 -26 19 -36
4z"/>
<path d="M7837 1813 c-14 -13 -6 -33 13 -33 11 0 20 4 20 9 0 13 -26 32 -33
24z"/>
<path d="M7727 1796 c-5 -13 31 -56 46 -56 13 0 6 25 -12 48 -22 26 -27 27
-34 8z"/>
</g>
</svg>
