<?xml version="1.0" encoding="UTF-8" standalone="no"?>
<svg
   xmlns:dc="http://purl.org/dc/elements/1.1/"
   xmlns:cc="http://creativecommons.org/ns#"
   xmlns:rdf="http://www.w3.org/1999/02/22-rdf-syntax-ns#"
   xmlns:svg="http://www.w3.org/2000/svg"
   xmlns="http://www.w3.org/2000/svg"
   id="svg4527"
   version="1.1"
   viewBox="0 0 210 297"
   height="297mm"
   width="210mm">
  <defs
     id="defs4521" />
  <metadata
     id="metadata4524">
    <rdf:RDF>
      <cc:Work
         rdf:about="">
        <dc:format>image/svg+xml</dc:format>
        <dc:type
           rdf:resource="http://purl.org/dc/dcmitype/StillImage" />
        <dc:title></dc:title>
      </cc:Work>
    </rdf:RDF>
  </metadata>
  <g
     id="layer1">
    <path
       d="m 198.51735,122.84316 c -0.16649,-1.47974 -0.18677,-2.93355 -0.0612,-4.36145 0.32773,-5.38219 0.16928,-11.45194 -0.47382,-18.21113 -0.36092,-4.897248 -1.30853,-9.895399 -2.84377,-14.995331 -0.61355,-2.040504 -1.39369,-4.168973 -2.33944,-6.387155 -3.42587,-9.537277 -8.15194,-17.847452 -14.17633,-24.93329 -6.02536,-7.085873 -12.21539,-12.870601 -18.5702,-17.355129 -2.88356,-2.191356 -6.04197,-4.369771 -9.47432,-6.5343 -3.43234,-2.165439 -6.73051,-3.883953 -9.89448,-5.157292 -1.17341,-0.202512 -2.47452,-0.367389 -3.90246,-0.494177 -1.4279,-0.126614 -2.76786,-0.418279 -4.01812,-0.876361 -1.17341,-0.203561 -2.23207,-0.719038 -3.17691,-1.547271 -0.94485,-0.828269 -1.8758,-1.38166 -2.79473,-1.662063 -1.4279,-0.126614 -3.0483,-0.195167 -4.85933,-0.206359 -1.81103,-0.01049 -3.59614,-0.169285 -5.35718,-0.473786 l -9.06807,-1.025359 c -3.03537,0.0787 -6.47789,0.420133 -10.329418,1.022561 -3.851565,0.602463 -7.370893,0.688504 -10.559836,0.257424 l -11.092883,3.337941 c 0.30723,1.019798 -0.432168,1.79805 -2.21728,2.335738 l -1.147506,0.345213 c -2.627235,0.51268 -4.832483,1.036446 -6.617599,1.574099 -4.94631,2.044246 -9.663117,4.85377 -14.149498,8.428639 -4.486381,3.574835 -8.679407,7.199685 -12.578156,10.876335 -8.155626,8.015887 -14.740834,17.783551 -19.75655,29.303971 -5.01479,11.520419 -7.467123,23.937552 -7.353297,37.252322 0.07866,3.03536 0.222098,6.05124 0.428464,9.04771 0.206359,2.99742 0.527485,5.6811 0.963353,8.05293 l 0.345179,1.14749 c 0.230422,0.76531 0.548768,1.36407 0.957799,1.79714 0.740328,0.6117 1.264109,1.4279 1.570418,2.44773 0.459929,1.52968 1.139178,4.24575 2.034048,8.1473 l 1.15121,3.8247 c 0.767161,2.55042 1.546355,4.67885 2.33943,6.38716 3.499895,7.01092 7.943711,13.46099 13.330512,19.34845 5.386806,5.88745 11.053084,10.85688 16.999761,14.90743 0.740325,0.6117 1.672214,1.16509 2.794732,1.66203 1.122522,0.49694 2.181189,1.01238 3.17693,1.54727 l 5.627409,4.14676 c 1.607434,1.18454 3.827491,2.32371 6.660165,3.41846 2.577265,1.17156 5.72828,2.16915 9.45305,2.99556 3.72477,0.82638 7.220042,1.58151 10.484883,2.26816 5.280373,0.91431 10.93646,1.22801 16.9692,0.94299 6.03275,-0.28505 12.18486,-1.09384 18.45821,-2.42548 3.21304,-0.4109 6.35015,-1.07625 9.41048,-1.99703 3.06034,-0.92078 6.17062,-2.13494 9.33274,-3.64241 5.96706,-2.35148 11.57596,-5.43032 16.82671,-9.23466 2.9317,-2.27187 6.1105,-5.10641 9.53913,-8.50174 3.42864,-3.39531 6.36495,-6.57316 8.81079,-9.53357 1.0448,-1.14841 1.8601,-2.36718 2.44588,-3.65535 0.58483,-1.28908 1.48991,-2.67259 2.7133,-4.15324 1.04477,-1.14843 2.05719,-2.63464 3.03809,-4.45955 0.98094,-1.82491 1.83974,-3.821 2.57728,-5.99014 0.27946,-0.91802 0.84027,-2.05999 1.68053,-3.42587 0.84027,-1.36592 1.48991,-2.6726 1.948,-3.92282 0.27946,-0.91801 0.3933,-1.92578 0.34136,-3.02238 -0.0518,-1.09755 0.0245,-2.23211 0.22665,-3.40552 0.27946,-0.91798 0.64223,-1.79158 1.08828,-2.62167 0.44605,-0.83008 0.77087,-1.83047 0.97352,-3.00388 0.3563,-0.66353 0.42014,-1.37792 0.18957,-2.14232 -0.15354,-0.50988 -0.17942,-1.05866 -0.0776,-1.64538 0.17872,-0.33227 0.56636,-0.65702 1.16603,-0.97629 0.59966,-0.31933 0.86062,-0.60617 0.78381,-0.86156 0.20181,-1.17712 0.22035,-2.5023 0.0528,-3.98203 z M 17.325105,107.07605 c -0.332238,-0.17768 -0.535812,-0.39516 -0.61262,-0.64965 -0.07681,-0.25462 0.01189,-0.42108 0.267427,-0.49788 0.178623,-0.33123 0.394223,-0.5358 0.649635,-0.61261 0.255431,-0.0769 0.421063,0.014 0.497871,0.26757 l 0.230422,0.76531 c -0.433091,0.40719 -0.777343,0.65055 -1.032756,0.72736 z m 170.296465,1.73422 1.14753,-0.34522 c 1.09751,-0.0518 2.10437,0.0619 3.02238,0.34137 0.91799,0.27946 1.45473,0.67462 1.60743,1.1845 0.2305,0.76531 -0.42013,1.37795 -1.94984,1.83785 1.83694,0.5599 2.79382,0.96705 2.87062,1.22154 0.0769,0.25463 -0.16473,0.60523 -0.72645,1.05313 -0.56081,0.44696 -1.26872,0.86895 -2.12196,1.26411 -0.85415,0.39606 -1.54822,1.09198 -2.08311,2.08681 -0.91798,-0.27946 -1.45472,-0.67462 -1.60743,-1.18454 0.17873,-0.33227 0.6117,-0.74034 1.3002,-1.22524 l 2.0646,-1.45567 c 0.43308,-0.40901 0.57281,-0.86804 0.42014,-1.37792 l -0.11472,-0.38222 c -0.48586,-0.6885 -0.9828,-0.95593 -1.49268,-0.80232 -0.25532,0.0769 -0.34416,0.24239 -0.26756,0.49789 -0.6117,0.7403 -1.17251,1.1873 -1.68242,1.34091 -0.0769,-0.25532 -0.35721,-0.72645 -0.84303,-1.41496 -0.74034,-0.61169 -1.14844,-1.04477 -1.22525,-1.3002 l -0.11472,-0.38218 c 0.43125,-0.4081 1.03092,-0.7274 1.79623,-0.95782 z m -1.98406,7.27184 c 0.17873,-0.33228 0.39422,-0.5358 0.64961,-0.61261 l 0.11472,0.38218 c 0.25533,-0.0769 0.42108,0.0105 0.49789,0.26757 l -0.26757,0.49789 c -0.43311,0.40901 -0.77734,0.65055 -1.03277,0.72736 l -0.11472,-0.38222 c -0.0759,-0.25533 -0.0245,-0.54874 0.15284,-0.88003 z m -2.89374,-30.414464 0.76531,-0.230492 c 0.33227,0.177678 0.5358,0.395124 0.6126,0.64961 l -0.26756,0.497885 -1.1475,0.345214 -0.11472,-0.382184 c -0.0777,-0.255325 -0.028,-0.548775 0.1518,-0.880068 z m -7.24134,-11.587049 0.76531,-0.230492 c 0.33227,0.177678 0.5358,0.395124 0.61264,0.64961 l -0.26757,0.497885 -1.14753,0.345214 -0.11472,-0.382184 c -0.077,-0.254626 -0.028,-0.547865 0.1518,-0.880068 z m -45.49125,-47.213434 1.14753,-0.345214 0.34521,1.147495 -1.14753,0.345214 -0.49785,-0.267567 c -0.0759,-0.254626 -0.0245,-0.548775 0.15285,-0.880068 z m -15.11376,-1.709246 0.76531,-0.230493 c 0.33228,0.177679 0.5358,0.39516 0.61261,0.649646 l -0.26757,0.497885 -1.14749,0.345213 -0.11472,-0.382218 c -0.0776,-0.254626 -0.028,-0.54874 0.15179,-0.880068 z m -2.0618,5.625587 0.76531,-0.230493 c 0.33227,0.177679 0.5358,0.395125 0.6126,0.649611 l -0.26756,0.497884 -1.1475,0.345214 -0.11472,-0.382183 c -0.0769,-0.254626 -0.028,-0.547865 0.1518,-0.880068 z m -2.87339,-5.392367 0.76531,-0.230492 c 0.33227,0.177678 0.5358,0.39516 0.6126,0.649646 l -0.26756,0.497849 -1.1475,0.345214 -0.11472,-0.382184 c -0.0777,-0.254626 -0.028,-0.54783 0.1518,-0.880068 z m -12.967767,2.651292 0.765311,-0.230493 c 0.332273,0.177679 0.535799,0.39516 0.612606,0.649646 l -0.267567,0.497849 -1.147495,0.345214 -0.114722,-0.382183 c -0.07765,-0.255326 -0.02798,-0.548775 0.151797,-0.880068 z M 35.999849,65.16614 c 0.178588,-0.331224 0.394226,-0.535834 0.649639,-0.612641 l 0.114757,0.382183 c 0.332237,0.177679 0.535812,0.39516 0.61262,0.649646 l -0.267427,0.497884 -1.147506,0.345214 -0.114757,-0.382183 c -0.0759,-0.255326 -0.02588,-0.548775 0.152706,-0.880068 z m -4.471572,5.933691 0.534886,-0.99479 -0.345179,-1.14753 c 1.020728,-0.30709 1.69535,-0.371061 2.02757,-0.193417 l 0.230422,0.765311 c 0.07681,0.254626 0.02588,0.548775 -0.152705,0.880068 -0.02483,0.842119 -0.254486,1.466792 -0.687577,1.874893 -0.178588,0.331223 -0.394223,0.535798 -0.649635,0.612606 l -0.497871,-0.267567 c -0.332238,-0.177679 -0.535812,-0.395125 -0.61262,-0.649611 -0.0759,-0.254626 -0.02588,-0.548775 0.152706,-0.880068 z M 31.40058,101.17191 c -0.178588,0.33122 -0.394226,0.53583 -0.649639,0.61264 -0.332203,-0.17768 -0.535809,-0.39516 -0.61262,-0.64964 -0.07681,-0.25463 0.01189,-0.42105 0.267427,-0.49785 0.178588,-0.33123 0.394226,-0.53584 0.649639,-0.61264 0.25543,-0.07695 0.421059,0.014 0.497867,0.26756 0.0759,0.25533 0.02588,0.54878 -0.152706,0.88007 z M 30.0393,74.468342 c 0.178588,-0.331224 0.394226,-0.535834 0.649639,-0.612641 0.25543,-0.07695 0.421059,0.01399 0.49787,0.267567 l 0.114757,0.382218 c 0.07681,0.254626 -0.01189,0.421042 -0.267427,0.49785 -0.178588,0.331223 -0.394226,0.535833 -0.649639,0.612641 -0.332203,-0.177679 -0.535812,-0.39516 -0.61262,-0.649646 -0.07681,-0.254626 0.01189,-0.421077 0.267427,-0.497884 z m -0.223042,7.575398 c 0.178623,-0.331223 0.394226,-0.535834 0.649638,-0.612641 0.255431,-0.07695 0.42106,0.01399 0.497871,0.267567 l 0.114756,0.382219 c 0.07681,0.254625 -0.01189,0.421042 -0.267427,0.497849 -0.178623,0.331223 -0.394226,0.535798 -0.649638,0.612641 -0.332238,-0.177679 -0.535813,-0.39516 -0.61262,-0.649646 -0.07681,-0.254626 0.01189,-0.421077 0.267427,-0.497884 z m -0.599665,16.030829 c 0.25543,-0.07695 0.421063,0.01399 0.49787,0.267567 l 0.230423,0.765347 c -0.433091,0.408101 -0.777343,0.650555 -1.032756,0.727362 -0.332203,-0.177678 -0.535813,-0.395159 -0.61262,-0.649645 -0.07681,-0.254626 0.01189,-0.421077 0.267427,-0.497885 0.178588,-0.331223 0.394222,-0.535798 0.649635,-0.612606 z m 0.301669,41.205701 -1.147506,0.34521 c -0.332203,-0.17768 -0.535812,-0.39516 -0.61262,-0.64964 -0.07681,-0.25463 0.01189,-0.42108 0.267427,-0.49789 0.178588,-0.33122 0.394223,-0.5358 0.649635,-0.6126 0.255431,-0.077 0.421063,0.014 0.497871,0.26756 z M 26.055385,68.157958 c -0.07681,-0.254626 0.01189,-0.421042 0.267427,-0.497849 0.509899,-0.153545 1.058667,-0.179427 1.645376,-0.07765 L 27.737766,66.81715 c -0.07681,-0.254625 0.01189,-0.421077 0.267427,-0.497884 l 0.497871,0.267567 c 0.07681,0.254626 -0.101781,0.586724 -0.534886,0.994825 0.230422,0.765311 0.08975,1.224302 -0.420136,1.377917 -0.509899,0.153545 -0.930962,0.140604 -1.262259,-0.03708 l -0.49787,-0.267567 c -0.07681,-0.253576 0.01189,-0.420132 0.267427,-0.49694 z m 1.770307,12.816004 c -0.178587,0.331223 -0.394225,0.535798 -0.649638,0.612606 -0.332203,-0.177679 -0.535809,-0.395125 -0.61262,-0.649611 -0.07681,-0.254626 0.01189,-0.421077 0.267427,-0.497884 0.178588,-0.331224 0.394226,-0.535799 0.649639,-0.612606 0.25543,-0.07695 0.421059,0.01399 0.49787,0.267567 l 0.114756,0.382183 c 0.07681,0.255326 -0.01189,0.421042 -0.267462,0.49785 z m -1.919298,-7.765109 c 0.178588,-0.331223 0.394226,-0.535798 0.649639,-0.612606 0.25543,-0.07695 0.421059,0.01399 0.497867,0.267567 l 0.114756,0.382184 c 0.07681,0.254626 0.02588,0.548775 -0.152705,0.880068 l -0.765312,0.230492 c -0.332237,-0.177678 -0.535812,-0.395159 -0.61262,-0.649645 -0.0759,-0.255326 0.01294,-0.421077 0.268372,-0.497885 z m -1.872101,3.483233 c 0.25543,-0.07695 0.459001,0.139904 0.61262,0.649645 0.153615,0.509882 0.102725,0.803261 -0.152706,0.880068 -0.509898,0.153545 -0.842122,-0.02448 -0.994814,-0.534889 -0.153615,-0.509916 0.02483,-0.841209 0.534886,-0.994824 z m -0.646862,4.782523 c 1.658335,0.8921 3.062177,1.859154 4.210609,2.903924 l 0.345179,1.147495 c 0.230422,0.765311 -0.598738,1.709246 -2.484721,2.833622 0.230422,0.765311 -0.037,1.262251 -0.802331,1.492674 0.153615,0.509916 -0.02483,0.842119 -0.534885,0.994824 l -0.382194,0.114722 c -0.07681,-0.254626 0.228568,-0.625582 0.917079,-1.110491 -0.230422,-0.765311 -0.08978,-1.224337 0.420137,-1.377952 l 0.382194,-0.114722 c 0.02483,-0.842119 -0.0398,-1.517647 -0.192474,-2.027563 -0.30723,-1.019797 -0.792148,-1.708301 -1.455665,-2.064568 -0.58671,-0.10178 -0.956876,-0.407191 -1.110491,-0.917072 -0.152705,-0.509007 0.07681,-1.134554 0.687577,-1.874893 z m 1.17527,33.017661 0.345179,1.14749 -1.147506,0.34522 -0.49787,-0.26757 c -0.07681,-0.25462 0.01189,-0.42108 0.267427,-0.49788 0.433091,-0.4081 0.777343,-0.65056 1.032756,-0.72737 z m -0.47381,-18.211134 c 0.178622,-0.331223 0.394225,-0.535798 0.649638,-0.612606 0.25543,-0.07695 0.42106,0.01399 0.497871,0.267567 l 0.230422,0.765312 c -0.433091,0.4081 -0.777343,0.650555 -1.032756,0.727362 -0.332203,-0.177678 -0.535813,-0.39516 -0.61262,-0.649646 -0.07681,-0.255325 0.01189,-0.421042 0.267427,-0.497849 z m 0.606142,39.445564 c 0.178588,-0.33122 0.394226,-0.53583 0.649639,-0.61264 0.25543,-0.0769 0.421059,0.014 0.49787,0.26756 l 0.345179,1.14754 -1.147506,0.34521 c -0.332237,-0.17768 -0.535812,-0.39516 -0.612623,-0.64965 -0.07681,-0.25532 0.01189,-0.42107 0.267427,-0.49788 z m -0.02763,-33.36284 -0.497867,-0.26757 c -0.07681,-0.25462 0.228568,-0.62558 0.91708,-1.11049 0.178622,-0.33122 0.394222,-0.53583 0.649635,-0.61264 0.509902,-0.15354 0.803257,-0.10283 0.880064,0.15285 0.07681,0.25462 -0.10178,0.58672 -0.534885,0.99482 -0.687581,0.48491 -1.158614,0.76626 -1.414027,0.84307 z m 1.025355,-9.068072 c -0.332238,-0.177678 -0.535813,-0.39516 -0.61262,-0.649645 -0.07681,-0.254626 0.01189,-0.421077 0.267462,-0.497885 0.178588,-0.331223 0.394222,-0.535798 0.649635,-0.612606 0.25543,-0.07695 0.421063,0.01399 0.497871,0.267567 l 0.230422,0.765312 c -0.433091,0.407191 -0.777343,0.650555 -1.032756,0.727362 z m -4.020892,-5.047187 c 0.178623,-0.331224 0.394223,-0.535834 0.649635,-0.612641 0.255431,-0.07695 0.421063,0.01399 0.497871,0.267567 l 0.230422,0.765346 c -0.178623,0.331224 -0.394222,0.535799 -0.649635,0.612606 l -0.382194,0.114722 c -0.332203,-0.177679 -0.535812,-0.39516 -0.612623,-0.649646 -0.07772,-0.255325 0.01119,-0.421042 0.266517,-0.497849 z m -0.335001,11.363097 c 0.178588,-0.331224 0.394223,-0.535834 0.649636,-0.612641 0.25543,-0.07695 0.421059,0.01399 0.49787,0.267567 l 0.230422,0.765316 c -0.433091,0.4081 -0.777343,0.65055 -1.032756,0.72739 -0.332202,-0.17768 -0.535812,-0.39516 -0.61262,-0.64964 -0.07681,-0.255328 0.01189,-0.42108 0.267428,-0.497887 z m -1.06607,6.160442 -0.114757,-0.38218 c -0.509902,0.15354 -0.803257,0.10282 -0.880064,-0.15285 -0.230423,-0.76535 -0.218391,-1.18548 0.037,-1.26229 l 0.382194,-0.11472 c 0.332203,0.17768 0.574678,0.52195 0.72737,1.03278 0.153615,0.50988 0.103634,0.80231 -0.151761,0.87912 z m 5.308144,34.27711 c -0.509902,0.15355 -0.841199,-0.0245 -0.994818,-0.53485 l -1.147505,0.34521 c 0.230422,0.76531 0.21839,1.18545 -0.03701,1.26225 l -0.114756,-0.38222 -0.382195,0.11473 c -0.07681,-0.25463 0.101781,-0.58669 0.534886,-0.99479 l -0.345179,-1.14753 -0.765311,0.23049 c -0.509899,0.15354 -0.803254,0.10283 -0.880065,-0.15285 l -0.382194,0.11473 c -0.153615,-0.50989 0.407181,-0.95685 1.682395,-1.34092 -0.230423,-0.76531 -0.218391,-1.18544 0.037,-1.26225 l 0.382195,-0.11472 0.114756,0.38218 c 0.07681,0.25463 -0.10178,0.58673 -0.534886,0.99483 l 0.345179,1.14749 c 0.765312,-0.23049 1.262255,0.0371 1.492685,0.80235 l 1.147505,-0.34521 c -0.230422,-0.76531 -0.21839,-1.18544 0.037,-1.26225 l 0.382194,-0.11472 0.114757,0.38218 c 0.07681,0.25463 -0.101781,0.58672 -0.534886,0.99482 0.153615,0.51083 0.102725,0.80417 -0.151761,0.88098 z m 0.223007,-7.57631 c -0.07681,-0.25462 0.228569,-0.62558 0.91708,-1.11049 l 1.5297,-0.45993 0.114756,0.38222 c 0.07681,0.25462 -0.10178,0.58669 -0.534886,0.99479 l -1.529703,0.45993 c -0.254486,0.0777 -0.420132,-0.0105 -0.49694,-0.26652 z m 2.159902,21.04102 -0.382194,0.11472 c -0.332238,-0.17873 -0.535812,-0.39422 -0.61262,-0.64961 -0.07681,-0.25533 0.01189,-0.42108 0.267427,-0.49789 0.178623,-0.33227 0.394223,-0.5358 0.649635,-0.6126 0.255431,-0.077 0.421063,0.0105 0.497871,0.26756 l 0.230422,0.76532 c -0.179532,0.33227 -0.395149,0.53579 -0.650562,0.6126 z m 1.533404,3.70998 c -0.07681,-0.25533 0.01189,-0.42108 0.267427,-0.49789 0.178588,-0.33227 0.394222,-0.53579 0.649635,-0.6126 0.25543,-0.077 0.421063,0.0105 0.497871,0.26757 l 0.230422,0.76531 c -0.178588,0.33227 -0.394226,0.5358 -0.649639,0.6126 l -0.38219,0.11472 c -0.333147,-0.17767 -0.53674,-0.39421 -0.613547,-0.64961 z m 0.500644,4.43825 c -0.230422,-0.76531 -0.218391,-1.18544 0.03701,-1.26225 l 0.382194,-0.11472 c 0.332202,0.17873 0.574678,0.52286 0.727373,1.03274 0.153615,0.50991 0.102724,0.80326 -0.152706,0.88007 l -0.114756,-0.38219 c -0.508976,0.1518 -0.802331,0.10178 -0.879142,-0.15354 z m 1.03646,3.44252 c -0.332238,-0.17872 -0.535813,-0.39421 -0.612624,-0.64964 -0.07681,-0.25533 0.01189,-0.42104 0.267428,-0.49785 0.178587,-0.33227 0.394225,-0.53584 0.649638,-0.61264 0.25543,-0.077 0.42106,0.0105 0.497871,0.26756 l 0.230422,0.76532 c -0.434018,0.40813 -0.77827,0.65059 -1.032756,0.72739 z m 1.948909,-1.83785 c -0.332203,-0.17873 -0.535813,-0.39425 -0.61262,-0.64965 -0.07681,-0.25532 0.01189,-0.42107 0.267427,-0.49788 0.178588,-0.33227 0.394222,-0.5358 0.649635,-0.61261 0.25543,-0.0769 0.421063,0.0105 0.497871,0.26757 L 34.014,162.5396 c -0.433091,0.4081 -0.777343,0.65056 -1.032756,0.72737 z m 2.05163,-18.13709 c -0.332203,-0.17873 -0.535813,-0.39425 -0.61262,-0.64964 -0.07681,-0.25463 0.01189,-0.42108 0.267427,-0.49789 0.178588,-0.33122 0.394222,-0.5358 0.649635,-0.6126 0.25543,-0.077 0.421063,0.014 0.497871,0.26756 l 0.230422,0.76531 c -0.178588,0.33228 -0.394222,0.5358 -0.649635,0.61261 z m 5.179512,17.2126 c -0.07681,-0.25532 -0.740328,-0.61169 -1.990554,-1.06978 l -0.880065,-0.15284 -0.382194,0.11472 v 0 l -1.22524,-1.3002 3.44252,-1.03554 -0.230422,-0.76531 c -0.07681,-0.25532 0.01189,-0.42104 0.267427,-0.49788 l 0.49787,0.26756 c 0.07681,0.25533 -0.10178,0.58673 -0.534885,0.99483 l 0.459928,1.52971 c 0.409031,0.43308 0.650562,0.77735 0.72737,1.03274 0.07681,0.25533 0.02588,0.54972 -0.151762,0.88192 z m 7.775283,10.59128 c -0.07681,-0.25532 0.01189,-0.42104 0.267462,-0.49785 0.433092,-0.40904 0.777344,-0.65055 1.032757,-0.72736 l 0.345178,1.1475 -1.147509,0.34521 z m 1.533404,3.70999 -0.49787,-0.26757 c -0.07681,-0.25533 0.01189,-0.42108 0.267462,-0.49789 0.433091,-0.40901 0.777343,-0.65055 1.032756,-0.72736 l 0.345179,1.1475 z m 2.64019,0.45713 1.147509,-0.34521 0.345179,1.14753 -1.147506,0.34521 -0.49787,-0.26756 c -0.07681,-0.25533 -0.02588,-0.54787 0.152706,-0.88007 z m 0.578382,6.08273 -0.497871,-0.26757 c -0.07681,-0.25533 -0.02588,-0.54787 0.152706,-0.88007 l 1.147509,-0.34521 0.345179,1.14749 z m 5.392356,-2.87339 -2.295015,0.69036 c -0.842122,-0.0245 -1.454742,-0.67462 -1.83786,-1.94985 0.994814,0.53489 1.748098,0.72551 2.257996,0.57189 0.255396,-0.0769 0.522858,-0.57465 0.80233,-1.49267 0.279459,-0.91802 1.057743,-1.56948 2.33203,-1.95356 l 1.147506,-0.34521 c 0.230422,0.76531 0.0583,1.58155 -0.514526,2.44864 -0.572828,0.86895 -1.203957,1.54451 -1.892461,2.03036 z m -2.528218,-4.24487 1.147509,-0.34522 0.114757,0.38222 c 0.07681,0.25533 0.02588,0.54783 -0.152706,0.88003 l -0.765315,0.2305 -0.49787,-0.26757 c -0.07586,-0.25533 -0.02483,-0.54783 0.153615,-0.88003 z m 6.278898,5.61908 -0.765311,0.23049 -0.497871,-0.26757 c -0.07681,-0.25532 -0.02588,-0.54783 0.152706,-0.88007 l 1.147509,-0.34521 0.114756,0.38222 c 0.07772,0.25463 0.02693,0.54783 -0.151761,0.88007 z m 3.097345,-2.18394 -0.765315,0.23049 -0.49787,-0.26757 c -0.07681,-0.25532 -0.02588,-0.54786 0.152705,-0.88007 l 0.765312,-0.23049 c 0.332237,0.17873 0.535812,0.39422 0.61262,0.64965 z m 2.491199,5.50803 -1.5297,0.4599 c -0.255395,0.077 -0.421063,-0.0105 -0.49787,-0.26757 -0.07681,-0.25532 0.229513,-0.62464 0.91708,-1.11049 l 1.147505,-0.34521 0.497871,0.26756 c 0.07681,0.25533 -0.101781,0.58673 -0.534886,0.99577 z m 2.220981,1.83414 -1.147506,0.34522 -0.114756,-0.38219 c -0.07681,-0.25532 -0.02588,-0.54783 0.152705,-0.88006 l 0.765312,-0.2305 c 0.332237,0.17873 0.535812,0.39422 0.61262,0.64965 z m 1.451965,-2.10531 c -0.25543,0.0769 -0.421059,-0.0105 -0.49787,-0.26757 -0.332238,-0.17873 -0.880061,-0.15284 -1.645376,0.0777 0.02483,-0.84212 0.292435,-1.33906 0.80233,-1.49268 l 0.382194,-0.11472 c 0.58671,0.10178 0.956872,0.40719 1.11049,0.91708 z m 5.321099,3.82194 -1.147505,0.34521 -0.114757,-0.38218 c -0.07681,-0.25533 -0.02588,-0.54783 0.152706,-0.88007 l 0.765311,-0.23049 c 0.332238,0.17873 0.535813,0.39425 0.612624,0.64965 z m 34.249369,8.46473 -0.38219,0.11473 c -0.33227,-0.17873 -0.53583,-0.39425 -0.61264,-0.64965 -0.0769,-0.25532 0.0105,-0.42108 0.26757,-0.49788 0.17873,-0.33228 0.39425,-0.5358 0.64965,-0.61261 0.25532,-0.077 0.42107,0.0105 0.49788,0.26757 l 0.23049,0.76531 c -0.17873,0.33227 -0.39516,0.5358 -0.65055,0.6126 z m 0.11192,-3.78769 -0.38218,0.11472 c -0.33228,-0.17873 -0.53584,-0.39422 -0.61264,-0.64965 -0.0769,-0.25532 0.0105,-0.42108 0.26756,-0.49788 0.17873,-0.33228 0.39425,-0.5358 0.64965,-0.61261 0.25532,-0.077 0.42108,0.0105 0.49788,0.26757 l 0.2305,0.76531 c -0.17873,0.33227 -0.39516,0.53583 -0.65059,0.61264 z m 12.59205,5.80508 c -0.38313,-1.27523 -0.30814,-2.40978 0.22665,-3.40552 -0.84212,-0.0245 -1.51768,0.0399 -2.0276,0.19237 l -0.76531,0.23049 c -0.17873,0.33228 -0.39422,0.53584 -0.64961,0.61265 -0.50992,0.15354 -1.00777,-0.11368 -1.49271,-0.80236 -0.84212,-0.0245 -1.4279,-0.12591 -1.7601,-0.30464 l -0.38222,0.11472 c -0.25533,0.0769 -0.19062,0.75328 0.19342,2.0276 l 0.38221,-0.11472 c 0.25533,-0.077 0.42105,0.0105 0.49785,0.26757 l 0.11473,0.38218 c -0.25533,0.077 -0.58669,-0.10178 -0.99483,-0.53489 -0.50988,0.15355 -0.94946,0.077 -1.32056,-0.22839 -0.37015,-0.30534 -0.81064,-0.38218 -1.32055,-0.2284 0.15354,0.50989 0.10283,0.80327 -0.15285,0.88007 l -0.38218,0.11472 c -0.0769,-0.25532 0.10178,-0.58672 0.53489,-0.99482 l -0.69036,-2.29503 c -0.76531,0.2305 -1.2243,0.0899 -1.37792,-0.42013 l 0.38219,-0.11472 -0.11473,-0.38218 c 0.25533,-0.077 0.62464,0.22944 1.11049,0.91707 0.53489,-0.99479 1.05775,-1.56948 1.56767,-1.7231 l 0.49785,0.26757 c 0.15354,0.50988 0.99482,0.53489 2.52544,0.0741 -0.99482,-0.53489 -1.56948,-1.05775 -1.72313,-1.56766 0.17873,-0.33228 0.39425,-0.5358 0.64965,-0.61261 l 0.38222,-0.11472 c 0.58669,0.10178 1.04568,0.24168 1.37791,0.42013 l 0.11473,0.38219 c 0.0769,0.25532 -0.19062,0.75328 -0.80232,1.4927 l 0.69032,2.29499 c 0.86713,-0.81711 1.82215,-1.7999 2.86692,-2.94834 0.17873,-0.33227 0.39425,-0.5358 0.64965,-0.6126 0.50991,-0.15355 0.91801,0.27945 1.22524,1.3002 0.15355,0.50988 0.21826,1.18544 0.19237,2.02756 l 0.38219,-0.11472 c 0.76531,-0.23049 1.22433,-0.0899 1.37795,0.42013 0.0769,0.25533 0.0647,0.67647 -0.0371,1.26225 -0.0245,0.84212 0.0399,1.51768 0.19237,2.02757 0.23049,0.76531 0.54969,1.36497 0.95779,1.79714 -1.60467,0.20635 -2.63835,-0.45529 -3.0992,-1.98591 z m -2.26449,-8.9126 c 0.50992,-0.15355 0.93005,-0.14166 1.26225,0.0371 0.25533,-0.077 0.42108,0.0105 0.49789,0.26757 l -0.26757,0.49785 -2.67721,0.80602 c 0.0245,-0.84212 0.41922,-1.37792 1.18454,-1.60834 z m -0.27036,-3.67204 c 0.17872,-0.33227 0.39421,-0.5358 0.64964,-0.6126 0.25533,-0.077 0.42104,0.0105 0.49789,0.26756 l 0.23049,0.76532 c -0.17873,0.33227 -0.39425,0.53579 -0.64965,0.6126 l -0.38222,0.11472 c -0.33227,-0.17872 -0.53579,-0.39421 -0.6126,-0.64964 -0.0769,-0.25533 0.0105,-0.42104 0.26652,-0.49785 z m 4.93519,-0.23399 c 0.17873,-0.33227 0.39425,-0.5358 0.64965,-0.6126 0.25532,-0.077 0.42107,0.0105 0.49788,0.26756 l 0.11472,0.38219 c 0.0769,0.25532 -0.0105,0.42104 -0.26757,0.49785 -0.17872,0.33227 -0.39421,0.53583 -0.64964,0.61264 -0.33227,-0.17873 -0.5358,-0.39422 -0.61261,-0.64965 -0.0769,-0.25532 0.0105,-0.42104 0.26757,-0.49785 z m 4.14306,13.77008 c 0.0769,0.25533 -0.0105,0.42105 -0.26757,0.49789 l -0.26757,0.49785 c -0.25532,0.0769 -0.45899,-0.13991 -0.6126,-0.64965 -1.17342,-0.20251 -1.83695,-0.55986 -1.99056,-1.06974 l 0.26756,-0.49789 c 0.17873,-0.33227 0.64965,-0.6126 1.41496,-0.84306 0.76531,-0.23049 1.44088,-0.2952 2.02756,-0.19342 0.33228,0.17873 0.53584,0.39425 0.61265,0.64965 0.0769,0.25532 -0.31724,0.79214 -1.18454,1.60837 z m 7.87339,-9.87689 c -0.58672,-0.10178 -1.26225,-0.0371 -2.02756,0.19237 -0.76531,0.22944 -1.22434,0.0899 -1.37796,-0.42013 l -1.14749,0.34521 0.69036,2.29502 c 0.76531,-0.23049 1.26225,0.0371 1.49267,0.80232 0.10178,-0.58669 0.27946,-0.91802 0.53489,-0.99482 l 0.76531,-0.2305 c 0.58673,0.10178 1.08458,0.36925 1.49268,0.80236 0.33227,0.17872 0.57469,0.52285 0.72739,1.03273 l 0.11473,0.38222 c -0.17873,0.33227 -0.52286,0.57466 -1.03278,0.72736 l -0.76531,0.2305 c 0.23049,0.76531 0.0899,1.2243 -0.42013,1.37791 -0.50992,0.15355 -0.93096,0.14166 -1.26225,-0.0371 l -0.49789,-0.26757 c -0.077,-0.25532 0.0105,-0.42104 0.26757,-0.49785 -0.0769,-0.25532 0.0105,-0.42107 0.26757,-0.49788 0.50991,-0.15355 1.05869,-0.17943 1.64537,-0.0776 -0.15354,-0.50991 -0.45993,-0.8347 -0.91892,-0.97447 -0.45899,-0.1399 -0.76531,-0.46546 -0.91893,-0.97443 -1.02074,0.30709 -1.60652,0.20531 -1.76013,-0.30464 l 0.26756,-0.49789 -1.14749,0.34522 c 0.40901,0.43311 0.65055,0.77734 0.72736,1.03277 0.23049,0.76531 -0.42013,1.37792 -1.94985,1.83785 -0.17872,0.33228 -0.39421,0.5358 -0.64961,0.61261 -1.27428,0.38313 -2.02759,0.19237 -2.25802,-0.57189 l -0.11472,-0.38219 c -0.6117,0.74031 -1.04477,1.14844 -1.3002,1.22525 l -0.38218,0.11472 c -0.33228,-0.17873 -0.5358,-0.39425 -0.61261,-0.64964 l 0.26757,-0.49789 c -0.15355,-0.50988 -0.014,-0.96891 0.42013,-1.37792 0.25533,-0.0769 0.79123,0.31724 1.60743,1.1845 0.50992,-0.15354 0.83471,-0.4599 0.97447,-0.91892 0.1399,-0.45899 0.46546,-0.76531 0.97443,-0.91893 l -0.34521,-1.14749 c -0.6885,0.48581 -1.28723,0.80511 -1.79714,0.95778 -0.25533,0.077 -0.42104,-0.0105 -0.49785,-0.26757 -0.58672,-0.10178 -0.99483,-0.53489 -1.22525,-1.3002 -0.23049,-0.76531 -0.33332,-1.56857 -0.30814,-2.40974 l 0.15285,-0.88007 0.76531,-0.23049 c 0.50988,-0.15355 0.80326,-0.10283 0.88007,0.15284 0.077,0.25533 0.0245,0.54783 -0.15285,0.88007 -0.10178,0.58669 -0.11367,1.00777 -0.0371,1.26225 0.23049,0.76531 0.96981,1.37701 2.22098,1.83415 0.76531,-0.2305 1.26225,0.0371 1.49267,0.80235 l 1.1475,-0.34522 c -0.45994,-1.52971 -0.30814,-2.40978 0.45717,-2.6402 -0.48585,-0.6885 -0.8042,-1.28722 -0.95782,-1.79714 -0.33227,-0.17873 -0.75328,-0.19062 -1.26225,-0.0371 l -0.76531,0.2305 c 0.15354,0.50991 -0.0245,0.84212 -0.53489,0.99482 l -0.38219,0.11472 c -0.0769,-0.25532 0.22945,-0.62467 0.91708,-1.11049 -0.0769,-0.25532 0.22944,-0.62467 0.91707,-1.11049 0.6885,-0.48585 1.3576,-1.03368 2.00721,-1.64723 l 1.62502,-1.53157 -0.10738,-0.35721 c 0.30814,0.13326 0.51824,0.33507 0.60523,0.62373 0.0769,0.25532 -0.0105,0.42108 -0.26757,0.49788 -0.17872,0.33228 -0.19062,0.75328 -0.0371,1.26226 0.15354,0.50991 0.85509,0.99388 2.10531,1.45196 -0.23049,-0.76531 -0.0899,-1.22431 0.42014,-1.37792 0.50988,-0.15355 0.93001,-0.14165 1.26225,0.0371 l 0.49788,0.26757 0.11472,0.38218 -2.29502,0.69036 z m -6.2789,-5.61908 c 0.17872,-0.33227 0.39421,-0.5358 0.64964,-0.61261 0.25533,-0.0769 0.42104,0.0105 0.49785,0.26757 l 0.11472,0.38218 c 0.077,0.25533 -0.0105,0.42108 -0.26756,0.49789 -0.17873,0.33227 -0.39422,0.5358 -0.64962,0.6126 -0.33227,-0.17872 -0.53583,-0.39421 -0.61264,-0.64964 -0.0769,-0.25638 0.0105,-0.42104 0.26757,-0.49785 z m 2.29502,-0.69127 c 0.29975,0.0105 0.54042,0.0602 0.75328,0.13046 z m 2.29499,-0.69036 c 0.17873,-0.33227 0.39425,-0.53583 0.64965,-0.61264 l 0.11472,0.38222 c 0.25532,-0.0769 0.42107,0.0105 0.49788,0.26757 0.0769,0.25532 -0.0105,0.42104 -0.26756,0.49785 -0.17873,0.33227 -0.39422,0.53583 -0.64965,0.61264 l -0.38218,0.11472 -0.11473,-0.38222 c -0.0776,-0.25532 -0.028,-0.54783 0.1518,-0.88003 z m 5.13141,5.96426 -0.11472,-0.38218 c -0.0769,-0.25533 -0.0245,-0.54787 0.15284,-0.88007 0.17873,-0.33227 0.39422,-0.53583 0.64965,-0.61264 l 0.11472,0.38222 c 0.25533,-0.0769 0.42104,0.0105 0.49785,0.26757 0.0769,0.25532 -0.0105,0.42104 -0.26757,0.49785 -0.17872,0.33227 -0.39421,0.53583 -0.64964,0.61264 z m 1.61114,5.35533 c -0.43311,0.40905 -0.77734,0.65056 -1.03278,0.72736 l -0.11472,-0.38218 c -0.0769,-0.25533 -0.0245,-0.54783 0.15285,-0.88007 0.17873,-0.33227 0.39425,-0.5358 0.64964,-0.6126 l 0.11473,0.38218 c 0.25532,-0.077 0.42107,0.0105 0.49788,0.26757 z m 4.01165,-7.46435 c -0.17873,0.33227 -0.39422,0.53583 -0.64965,0.61264 l -0.38218,0.11472 -0.11472,-0.38221 c -0.0769,-0.25533 -0.0245,-0.54783 0.15284,-0.88007 0.17873,-0.33228 0.39422,-0.5358 0.64961,-0.61261 l 0.11473,0.38218 c 0.25532,-0.0769 0.42107,0.0105 0.49788,0.26757 0.0759,0.25638 -0.014,0.42108 -0.26827,0.49789 z m 24.53719,-30.74208 -0.49785,-0.26757 c -0.0769,-0.25532 -0.0245,-0.54783 0.15284,-0.88003 l 1.1475,-0.34521 0.34521,1.14749 z m 3.03351,12.8521 -0.38219,0.11472 c -0.33227,-0.17873 -0.53583,-0.39425 -0.61264,-0.64965 -0.0769,-0.25532 0.0105,-0.42107 0.26757,-0.49788 0.17873,-0.33227 0.39421,-0.5358 0.64964,-0.61261 0.25533,-0.0769 0.42105,0.0105 0.49785,0.26757 l 0.23049,0.76531 c -0.17942,0.33228 -0.39606,0.5358 -0.65055,0.61261 z m 2.70218,-40.23214 c -2.04607,9.3753 -5.18227,17.20242 -9.4114,23.48038 -0.96796,1.40384 -2.14694,2.8012 -3.53598,4.1921 -1.38904,1.39089 -2.6948,2.82711 -3.91819,4.30779 -3.74604,4.18562 -8.46099,8.38604 -14.1458,12.59943 -7.40912,3.98944 -17.78099,9.43917 -25.68195,11.69068 -3.35368,0.86989 -6.12711,1.35666 -8.32035,1.46029 -1.352,0.12871 -2.6522,-0.036 -3.90337,-0.49414 -1.25022,-0.45808 -2.59022,-0.75052 -4.01812,-0.87636 -1.68333,-0.049 -3.39254,0.0483 -5.126755,0.29135 -1.734219,0.24343 -3.315732,0.30254 -4.74363,0.17593 -0.332273,-0.17873 -0.765312,-0.4655 -1.301145,-0.85971 -0.535799,-0.39422 -1.097515,-0.64318 -1.684238,-0.74496 -0.663531,-0.3563 -1.25022,-0.45808 -1.760136,-0.30464 l -0.267567,0.49788 c -0.509881,0.15355 -1.097515,0.0518 -1.760136,-0.30464 -3.929269,-1.04204 -7.756756,-2.67168 -11.481527,-4.88801 -3.725697,-2.21636 -7.514319,-3.7174 -11.366794,-4.50492 l 0.230423,0.76531 c 0.07681,0.25533 -0.01189,0.42108 -0.267462,0.49789 l -0.114757,-0.38219 -0.382194,0.11472 c -0.07681,-0.25532 0.10178,-0.58672 0.534886,-0.99482 l -0.345179,-1.14749 c -8.01311,-5.37569 -14.561303,-11.88687 -19.643648,-19.53446 -4.213386,-5.68476 -7.394016,-12.09693 -9.542817,-19.23645 -0.690354,-2.29503 -1.215062,-4.50027 -1.574119,-6.61758 -0.511749,-2.62632 -1.006846,-6.57967 -1.482503,-11.85913 -0.47566,-5.27946 -0.4479,-9.80747 0.08422,-13.58222 0.125843,-1.42885 0.482138,-2.787318 1.067921,-4.075487 0.585782,-1.288169 1.068847,-2.685568 1.450115,-4.190274 1.143805,-4.51597 2.842855,-9.267051 5.096224,-14.255898 2.253372,-4.988882 4.476203,-8.92467 6.666646,-11.808238 1.401995,-1.811935 2.706819,-3.248158 3.918181,-4.307758 1.211361,-1.0596 2.771598,-2.571721 4.683492,-4.537271 1.121595,-0.893954 2.229312,-2.06184 3.325921,-3.503624 1.096608,-1.441784 2.204321,-2.609635 3.325916,-3.503588 0.178588,-0.331224 0.394226,-0.535799 0.649639,-0.612606 0.509899,-0.153545 1.058666,-0.179428 1.645376,-0.07765 l 2.295015,-0.690358 c 0.255395,-0.07695 0.669068,-0.548775 1.241895,-1.416811 0.572831,-0.868001 1.076253,-1.505615 1.509344,-1.91466 4.028303,-2.324615 8.210224,-4.138404 12.544841,-5.443257 3.824693,-1.151202 8.020528,-1.996084 12.58557,-2.535625 8.952372,-0.746774 16.324172,-0.740304 22.114462,0.02098 0.91893,0.279459 1.6713,0.470114 2.25802,0.571929 0.58669,0.101781 1.21227,0.330524 1.87486,0.686651 0.66259,0.356266 1.25022,0.458081 1.76014,0.304641 0.25532,-0.07695 0.47102,-0.281208 0.64964,-0.612641 l 0.38219,-0.114721 c 0.76531,-0.230493 1.47973,-0.167536 2.14232,0.18957 1.5047,0.381274 3.12602,1.144732 4.86118,2.291318 1.73513,1.146585 3.59799,2.254313 5.58855,3.324091 1.65832,0.892065 3.38051,1.763808 5.16747,2.616105 1.78696,0.853242 3.5471,1.852683 5.28222,2.999269 7.60503,4.941664 14.35681,11.670327 20.25626,20.184063 4.11161,6.271525 7.20339,12.849301 9.27537,19.734341 0.92078,3.060337 1.67592,6.03089 2.2645,8.912639 1.4103,9.30591 1.09289,18.64788 -0.95317,28.02321 z m 3.34906,-45.015574 -1.14749,0.345214 -0.11473,-0.382218 c -0.0769,-0.254626 -0.0245,-0.548775 0.15285,-0.880068 l 0.76531,-0.230493 c 0.33227,0.177679 0.5358,0.39516 0.61261,0.649646 z m 0.96149,5.967933 -0.38218,0.114721 -0.11472,-0.382183 0.91707,-1.11049 1.1475,-0.345214 c 0.25532,-0.07695 0.42107,0.01399 0.49788,0.267567 0.0769,0.254625 -0.1406,0.458991 -0.64965,0.612641 -0.68941,0.484908 -1.16047,0.76622 -1.41586,0.843028 z m 1.89616,25.708781 0.49789,0.26757 0.5756,1.91284 c 0.15354,0.50988 0.10283,0.80326 -0.15285,0.88006 l -0.11472,-0.38221 c -0.66259,-0.35627 -1.07163,-0.79029 -1.22525,-1.3002 0.0245,-0.84212 0.16369,-1.30111 0.41923,-1.37792 z m 3.37404,9.83062 -1.1475,0.34521 c -0.0769,-0.25532 -0.0245,-0.54783 0.15285,-0.88007 0.17873,-0.33227 0.39421,-0.53579 0.64964,-0.6126 0.33228,0.17873 0.5358,0.39421 0.61261,0.64964 z m 0.0748,-2.52545 c -1.02071,0.30709 -1.86192,0.28226 -2.52542,-0.0742 -0.58672,-0.10178 -0.91801,-0.27946 -0.99482,-0.53489 -0.0769,-0.25532 -0.0245,-0.54783 0.15285,-0.88003 l 0.76531,-0.23049 c 0.76531,-0.23049 1.95075,-0.44791 3.55727,-0.65336 0.71348,-1.32702 1.45197,-2.10531 2.21728,-2.33573 l 0.38218,-0.11472 c 0.58672,0.10178 0.91802,0.27945 0.99482,0.53488 0.15355,0.50992 0.014,0.96891 -0.42013,1.37792 -0.17873,0.33227 -0.52286,0.57469 -1.03277,0.7274 -0.50988,0.15285 -1.2243,0.0899 -2.14232,-0.18957 0.38407,1.27428 0.0658,2.06551 -0.95408,2.37274 z m 5.0879,-1.11416 c 0.12871,1.35109 -0.0619,2.10437 -0.5719,2.25798 -0.17872,0.33228 -0.39421,0.5358 -0.64964,0.61261 -0.25533,0.0769 -0.58669,-0.10178 -0.99479,-0.53489 l -0.34522,-1.14749 c 0.17768,-0.33123 1.03089,-0.72737 2.56151,-1.18821 -0.23049,-0.76531 -0.0899,-1.22434 0.42013,-1.37795 l 0.49789,0.26756 c 0.0759,0.25638 -0.23049,0.62559 -0.91802,1.11049 z m 1.25858,-4.13288 -0.11473,-0.38222 c -0.0769,-0.25532 0.10178,-0.58669 0.53489,-0.99479 0.43308,-0.40904 0.77735,-0.65059 1.03274,-0.7274 0.25533,-0.0769 0.42108,0.0105 0.49789,0.26757 0.25532,-0.0769 0.42104,0.0105 0.49785,0.26757 l -0.64961,0.61264 c -0.94485,0.56172 -1.5436,0.88007 -1.799,0.95688 z m 2.87059,1.22245 c -0.43308,0.40904 -0.77735,0.65055 -1.03274,0.72736 l -0.11472,-0.38218 c -0.077,-0.25533 -0.0245,-0.54783 0.15284,-0.88007 -0.0769,-0.25533 0.0105,-0.42104 0.26757,-0.49785 0.25532,-0.0769 0.42104,0.0105 0.49785,0.26757 0.25532,-0.077 0.42108,0.0105 0.49788,0.26756 z m 0.18607,-6.31315 -0.11472,-0.38218 c -0.50988,0.15354 -0.80323,0.10283 -0.88007,-0.15285 -0.23049,-0.76531 -0.21825,-1.18544 0.0371,-1.26225 l 0.38222,-0.11472 c 0.33228,0.17873 0.57466,0.52286 0.72737,1.03274 0.15459,0.50897 0.10353,0.80235 -0.1518,0.87916 z m -0.65332,-3.55818 c -0.76531,0.23049 -1.22434,0.0899 -1.37795,-0.42014 0.0245,-0.84212 0.16474,-1.30111 0.42013,-1.37791 0.25533,-0.0769 0.42108,0.0105 0.49789,0.26756 0.40904,0.43308 0.86803,0.57281 1.37791,0.42014 0.15285,0.50988 -0.15284,0.88097 -0.91798,1.11049 z"
       id="path1045"
       style="fill:#000000;fill-opacity:1;stroke-width:0.9254086" />
    <g
       id="g5045"
       transform="matrix(0.92538545,-0.00655119,0.00655119,0.92538545,-450.62955,-67.806113)">
      <g
         transform="rotate(10.50138,721.41793,298.32639)"
         id="g5021">
        <path
           id="path1018"
           transform="translate(0.32931,12.94061)"
           d="m 650.6582,258.39258 c -0.98977,-0.009 -1.97855,-0.003 -2.96289,0.0117 -3.16314,0.0477 -6.36023,0.48162 -9.46484,1.11718 -3.84617,0.78739 -7.65143,1.83579 -11.39844,3.01368 -2.61766,0.82311 -5.25564,1.79867 -7.62305,3.16015 -3.67839,2.11629 -7.3004,4.39577 -10.17968,7.62305 -1.34824,1.51013 -2.98429,2.84107 -4.01953,4.53906 -2.31073,3.7898 -4.69693,7.61007 -6.35157,11.70117 -1.53166,3.78398 -2.43282,7.89074 -3.08203,11.94141 -0.51577,3.22298 -0.35506,6.57975 -0.25976,9.86914 0.0595,2.06271 0.5157,4.12032 0.89062,6.16211 0.0663,0.36112 0.58058,0.85561 0.94531,0.91211 3.3752,0.5188 6.76093,0.95214 10.50586,1.46094 -4.04166,4.36505 -3.51547,8.96999 -1.86132,13.44336 1.17757,3.18257 2.88146,6.2209 4.70898,9.0957 1.62223,2.55111 3.74394,4.78313 5.63281,7.16602 0.51882,0.65408 1.26102,1.27468 1.44531,2.02343 0.66178,2.69392 0.89057,5.51042 1.73047,8.13867 0.95157,2.98142 2.127,5.95566 3.66797,8.66993 2.20976,3.89272 5.32873,7.08658 8.99219,9.70898 3.71673,2.65978 7.97894,3.77415 12.41406,3.62305 3.3059,-0.11298 6.47934,-1.37027 9.17188,-3.42383 0.85714,-0.65306 1.86352,-1.60283 2.04687,-2.56055 0.67145,-3.51487 1.39653,-7.09006 1.39453,-10.64258 -10e-4,-3.45649 -0.69396,-6.94887 -1.41211,-10.35546 -0.54298,-2.57855 -1.29658,-5.2101 -2.50976,-7.52735 -1.76275,-3.36422 -3.85499,-6.59189 -6.11524,-9.65039 -2.73098,-3.69568 -6.44385,-6.26682 -10.80859,-7.74609 -2.62445,-0.88853 -5.25291,-1.6203 -7.32617,-3.6543 -3.69911,-3.62958 -7.58808,-7.07141 -11.20508,-10.7793 -2.08388,-2.13657 -3.94277,-4.50211 -3.74609,-7.88671 0.23376,-4.02863 0.97041,-7.9418 2.20117,-11.76172 2.33969,-7.25904 5.9223,-13.89484 10.93554,-19.61328 3.9657,-4.52441 8.59796,-8.17353 14.82618,-9.43946 4.97639,-1.01079 9.63426,-0.34757 13.8125,2.20117 3.53016,2.15417 7.02241,4.65541 9.82031,7.66407 4.91169,5.28128 9.29068,11.05766 13.83203,16.67578 0.22304,0.27444 -0.0175,1.08714 -0.25391,1.53906 -0.54403,1.04018 -1.54261,1.94605 -1.7539,3.02539 -0.25681,1.31088 -0.97695,1.51752 -1.96875,1.60742 -5.41255,0.49378 -8.57178,3.89565 -10.68555,8.47071 -1.84524,3.99581 -2.74566,8.25306 -2.52148,12.66992 0.16914,3.33576 0.15021,6.75106 0.90625,9.96875 1.21982,5.19228 3.07986,10.18155 6.15039,14.69531 2.64663,3.89167 5.55468,7.38659 9.75195,9.65625 6.36545,3.44242 13.16304,1.67424 17.01563,-4.44336 3.15827,-5.01499 3.84494,-10.64962 4.08203,-16.39648 0.0189,-0.4389 0.10948,-0.88729 0.23828,-1.3086 0.36742,-1.20943 0.90002,-2.38207 1.13867,-3.61328 0.0803,-0.41309 0.13781,-0.82543 0.17969,-1.23633 l -0.10547,0.0645 c -0.39172,0.23697 -0.96289,0.18045 -1.70899,-0.16993 -1.29236,0.5142 -2.03458,0.83074 -2.23046,0.94922 -0.1181,-0.19519 -0.1399,-0.45126 -0.0625,-0.76562 -0.35504,-0.58694 -0.82517,-0.7027 -1.41211,-0.34766 l -0.88086,0.53321 c -0.23656,-0.39108 -0.0429,-1.17695 0.58007,-2.35547 l 0.70313,-0.82618 c -0.23696,-0.39194 -0.90353,-0.38986 -2,0.006 0.23656,0.39106 0.15863,0.70679 -0.23242,0.94336 l -0.29492,0.17774 c -0.11806,-0.19518 0.0589,-0.57018 0.52734,-1.1211 0.665,-0.66981 0.81792,-1.29782 0.46289,-1.88476 l -0.71094,-1.17383 c -0.23696,-0.39173 -0.37491,-0.84329 -0.41601,-1.35352 l 2.05469,-1.24218 c -0.35505,-0.58694 -0.14219,-1.11828 0.64062,-1.5918 l 0.002,0.002 2.34766,-1.41992 c 0.43285,0.27325 0.70769,0.50726 0.82617,0.70313 0.35504,0.58694 0.14219,1.11631 -0.64062,1.58984 -0.66428,0.66907 -1.07403,1.31765 -1.22852,1.94531 -0.43224,-0.27311 -0.76916,-0.60469 -1.00586,-0.99609 -0.23697,-0.39174 -0.55035,-0.46898 -0.9414,-0.23242 l 0.35546,0.58789 c 0.3548,0.58655 0.88713,0.8011 1.5918,0.64258 0.35545,0.58761 0.39563,1.09685 0.12305,1.52929 -0.0774,0.31436 10e-4,0.66687 0.23828,1.0586 l 0.35547,0.58593 c 0.58693,-0.35503 0.99937,-0.33706 1.23633,0.0547 0.11848,0.19586 0.19718,0.54836 0.23828,1.0586 0.0818,1.01974 -0.0719,1.6482 -0.46289,1.88476 l -0.29493,0.17774 0.53125,0.88085 c 0.54693,-0.86498 1.01715,-1.41772 1.40821,-1.65429 l 0.29297,-0.17578 c 0.0707,0.0173 0.11893,0.047 0.17968,0.0703 -0.027,-1.37518 -0.21313,-2.74026 -0.49023,-4.09766 -0.0764,-0.01 -0.1387,-0.0337 -0.17383,-0.0918 l -0.17773,-0.29493 c 0.0312,-0.12686 0.0953,-0.2452 0.17773,-0.35937 -0.11273,-0.50138 -0.2208,-1.00419 -0.34766,-1.50391 -0.28627,-1.12465 -0.37792,-2.09796 0.66797,-3.04492 0.71617,-0.6487 1.22564,-1.66786 1.51953,-2.61719 1.95129,-6.29931 1.3292,-12.19087 -2.52148,-17.75781 -3.68166,-5.32166 -8.57074,-7.19653 -14.92187,-6.0332 -0.17909,-1.85929 -0.25791,-3.70874 -0.55665,-5.52344 -0.3899,-2.37131 -0.7755,-4.7698 -1.48632,-7.05664 -0.88358,-2.84109 -2.18802,-5.55036 -3.13282,-8.375 -0.54802,-1.639 -1.50919,-2.69925 -3.03125,-3.4043 -2.49214,-1.15458 -4.89484,-2.53286 -7.45117,-3.51172 -3.34294,-1.28043 -6.73148,-2.6567 -10.22656,-3.27148 -2.89503,-0.50954 -5.87247,-0.67918 -8.8418,-0.70703 z m 50.33008,62.80664 c 0.0559,0.24883 0.12294,0.49679 0.17383,0.74609 0.18134,0.0232 0.47183,-0.0803 0.88477,-0.33008 0.19545,-0.11917 0.17403,-0.37455 -0.0625,-0.76562 l 0.29492,-0.17773 c -0.11848,-0.19588 -0.37457,-0.17603 -0.76563,0.0605 -0.23324,0.1411 -0.40361,0.29806 -0.52539,0.4668 z m 0.66406,4.84375 c 0.0122,0.62009 -0.003,1.24057 -0.0664,1.86523 l 0.1875,-0.11328 c 0.27259,-0.43242 0.38875,-0.90383 0.34765,-1.41406 -0.0918,-0.15179 -0.25952,-0.25748 -0.46875,-0.33789 z m -3.1289,-2.29688 c -0.70595,0.15995 -1.15765,0.29559 -1.35352,0.41407 -0.19588,0.11848 -0.3308,0.33603 -0.4082,0.65039 l 0.17773,0.29297 0.47266,0.11523 c 0.31436,0.0774 0.66557,-0.002 1.05664,-0.23828 0.39076,-0.23636 0.40919,-0.64757 0.0547,-1.23438 z m -9.67188,-29.72265 c 2.02849,-0.0303 3.99164,0.69953 5.75782,2.01367 3.91893,2.91718 5.88081,6.92437 6.25195,11.67383 0.18333,2.3414 0.0114,4.74684 -1.66602,6.69726 -0.0169,0.0823 -0.074,0.15525 -0.17578,0.2168 -0.0774,0.31434 -0.50626,0.70812 -1.28906,1.18164 -0.58711,0.35462 -1.43086,0.73123 -2.52735,1.12695 l -0.58593,0.35352 c -0.58693,0.35504 -1.11555,0.80846 -1.58399,1.35937 0.35503,0.58693 0.33638,0.99976 -0.0547,1.23633 l -0.17774,-0.29297 -0.29297,0.17774 c -0.11807,-0.1952 0.0569,-0.5702 0.52539,-1.1211 -1.33303,0.005 -2.11851,-0.18832 -2.35547,-0.58007 -0.23696,-0.39174 -0.27713,-0.901 -0.12304,-1.5293 1.01497,-1.41659 1.36239,-2.82915 1.04297,-4.24023 0.27221,-0.43161 0.50747,-0.7078 0.70312,-0.82618 0.58692,-0.35505 1.05708,-0.23927 1.41211,0.34766 l 0.35547,0.58594 c 0.15915,0.70543 0.3568,1.25474 0.59375,1.64648 0.23697,0.39174 0.51378,0.62573 0.82812,0.70313 0.11849,0.19588 0.27485,0.2337 0.47071,0.11523 0.19587,-0.11849 0.31165,-0.58862 0.34765,-1.41211 0.27259,-0.43242 0.50727,-0.70965 0.70313,-0.82812 0.19588,-0.11849 0.56822,0.0589 1.11914,0.52734 l 0.002,-0.002 0.002,0.002 c 0.016,0.0101 0.0272,0.0229 0.043,0.0332 -1.01335,-1.73896 -1.97099,-3.4323 -3.0957,-4.96679 -1.05089,-1.43466 -2.22701,-2.76921 -3.62305,-3.85157 0.22352,0.21262 0.39467,0.39378 0.46485,0.50977 l -0.11719,0.4707 c -0.19586,0.11848 -0.56628,-0.0569 -1.11719,-0.52539 -0.31394,-0.0767 -0.53192,-0.21233 -0.65039,-0.4082 -0.2366,-0.39107 -0.25641,-0.64715 -0.0605,-0.76563 0.10884,-0.0658 0.2619,-0.0572 0.44336,-0.002 -0.52243,-0.33026 -1.06886,-0.6313 -1.6543,-0.88477 -0.25908,-0.11313 -0.53978,-0.34514 -0.7793,-0.31054 -3.14511,0.45663 -5.32402,-1.73355 -7.98242,-2.73828 1.82281,-2.50834 3.9312,-4.6257 6.80078,-5.40235 0.68584,-0.18554 1.36876,-0.2809 2.04492,-0.29101 z m 1.57032,9.62695 c 0.35756,0.22604 0.70583,0.46386 1.0371,0.7207 -0.1526,-0.14516 -0.31553,-0.29626 -0.53906,-0.48632 -0.1923,-0.12141 -0.35298,-0.19016 -0.49804,-0.23438 z m 7.75585,9.53906 c 0.28003,0.48055 0.54469,0.94634 0.8418,1.43555 0.0656,-0.0702 0.11434,-0.14536 0.17578,-0.2168 0.0156,-0.0762 -0.002,-0.16174 -0.0586,-0.25586 -0.22762,-0.37636 -0.55055,-0.69587 -0.95899,-0.96289 z m -0.0469,-0.0332 c -0.46872,0.54997 -0.64185,0.92149 -0.52344,1.11719 l 0.29297,-0.17578 0.17773,0.29296 c 0.39,-0.2359 0.40874,-0.64799 0.0566,-1.23242 -10e-4,-0.001 -0.003,-0.002 -0.004,-0.002 z m -9.86133,-9.67383 c 0.31394,0.0767 0.53191,0.21233 0.65039,0.4082 l 0.17774,0.29297 c -0.0774,0.31436 -0.21428,0.53191 -0.41016,0.65039 -0.19587,0.11848 -0.35222,0.0787 -0.4707,-0.11718 -0.31394,-0.0767 -0.53192,-0.21234 -0.65039,-0.40821 -0.11849,-0.19587 -0.0787,-0.35418 0.11718,-0.47265 z m 1.06641,1.76172 c 0.31394,0.0767 0.53191,0.21232 0.65039,0.4082 l 0.17773,0.29297 c -0.0774,0.31436 -0.21428,0.52997 -0.41015,0.64844 -0.19588,0.11849 -0.35223,0.0806 -0.47071,-0.11523 -0.31395,-0.0767 -0.53191,-0.21234 -0.65039,-0.40821 -0.11807,-0.1952 -0.0783,-0.35348 0.11719,-0.47265 z m -4.00196,0.0137 0.64844,0.41016 c 0.43284,0.27326 0.70769,0.50724 0.82617,0.70312 l 0.17774,0.29297 -0.11524,0.47071 c -0.19588,0.11849 -0.56822,-0.057 -1.11914,-0.52539 -0.31332,-0.0766 -0.5298,-0.21294 -0.64843,-0.40821 -0.23602,-0.39078 -0.257,-0.647 -0.0625,-0.76562 z m 6.4668,2.4043 c 0.28496,0.0286 0.56635,0.16031 0.8418,0.39453 0.78349,-0.47393 1.29039,-0.51479 1.52734,-0.12305 l 0.47266,0.11719 c 0.1181,0.1952 0.13795,0.44737 0.0605,0.76172 -0.0774,0.31435 -0.21233,0.53191 -0.4082,0.65039 l -0.47265,-0.11719 c -0.19586,0.11849 -0.58768,-0.31039 -1.17969,-1.28906 -0.78348,0.47393 -0.94033,1.10391 -0.4668,1.88672 0.35501,0.58694 0.33832,0.99781 -0.0527,1.23437 -0.19587,0.11849 -0.54905,0.19954 -1.0586,0.24024 l 0.53125,0.88086 -0.58593,0.35351 c -0.78281,0.47353 -1.64396,0.59518 -2.58594,0.36328 l -0.58594,0.35352 c -0.19591,0.11851 -0.1187,0.47166 0.23633,1.05859 l 0.5332,0.88086 c 0.39106,-0.23657 0.64715,-0.25642 0.76563,-0.0605 l 0.17773,0.29297 c -0.19586,0.11848 -0.51052,0.0408 -0.94336,-0.23243 -0.78348,0.47394 -1.35199,0.41702 -1.70703,-0.16992 l -0.17773,-0.29297 c -0.27766,-0.9013 -0.65343,-1.74454 -1.12696,-2.52734 -0.58693,0.35504 -0.94012,0.4361 -1.05859,0.24023 l -0.17578,-0.29297 0.29297,-0.17773 c 0.19587,-0.11848 0.50856,-0.0428 0.9414,0.23047 0.39107,-0.23655 0.62302,-1.18008 0.69532,-2.82813 l 0.58593,-0.35351 c 0.58694,-0.35504 1.05903,-0.23928 1.41407,0.34766 l 0.71093,1.17578 c 0.47353,0.78281 1.1612,1.03544 2.0625,0.75781 -0.74651,-0.35107 -1.18034,-0.62444 -1.29883,-0.82031 -0.35482,-0.58694 -0.35776,-1.25322 -0.008,-2 l 1.17383,-0.71094 c 0.29381,-0.17773 0.58418,-0.25321 0.86914,-0.22461 z m -6.28125,1.54492 c 0.19085,-0.0153 0.44643,0.0793 0.76953,0.28516 -0.58603,0.35425 -0.93824,0.43397 -1.05664,0.23828 l -0.17773,-0.29297 0.29492,-0.17969 c 0.049,-0.0296 0.1063,-0.0457 0.16992,-0.0508 z m -2.69531,1.17774 c 0.31393,0.0767 0.52997,0.21428 0.64844,0.41015 l 0.17773,0.29297 c -0.0774,0.31436 -0.21428,0.52996 -0.41016,0.64844 -0.19587,0.11848 -0.35222,0.0806 -0.4707,-0.11524 -0.31394,-0.0767 -0.52996,-0.21428 -0.64844,-0.41015 -0.11808,-0.19521 -0.0802,-0.35153 0.11524,-0.47071 z m 5.11914,0.51171 -0.58594,0.35547 c -0.19589,0.11849 -0.23528,0.27553 -0.11719,0.47071 0.11807,0.19517 0.33409,0.33275 0.64844,0.41015 0.11849,0.19589 0.27679,0.23371 0.47266,0.11524 0.19586,-0.11848 0.3308,-0.33409 0.4082,-0.64844 l -0.17773,-0.29297 c -0.11807,-0.19519 -0.33408,-0.33276 -0.64844,-0.41016 z m -13.67383,0.9629 c 1.05764,0.0484 2.215,0.57815 3.4082,1.5664 3.86874,3.20406 6.1599,7.54966 7.64258,12.29102 1.03134,3.29801 2.22542,6.60248 2.71094,9.99609 0.49178,3.4412 0.66735,7.03031 -0.65039,10.43359 -1.08918,2.81396 -3.59984,3.54288 -6.25195,2.05664 -3.08685,-1.72928 -4.72777,-4.63452 -6.28711,-7.53515 -1.42477,-2.64908 -2.55212,-5.47538 -3.58594,-8.30664 -0.67018,-1.8358 -0.93894,-3.81898 -1.43945,-5.96094 -0.25063,-3.42547 -0.94719,-7.05178 0.28711,-10.66992 0.91753,-2.69528 2.40329,-3.95169 4.16601,-3.87109 z m 19.68945,3.01757 -0.76367,0.0605 c -0.39106,0.23655 -0.56649,0.61086 -0.52539,1.12109 l 0.17774,0.29297 c 0.23654,0.39109 0.70892,0.50768 1.41406,0.34961 l -0.17774,-0.29297 c -0.23717,-0.39175 -0.31763,-0.74423 -0.24023,-1.05859 0.19587,-0.11847 0.23371,-0.27678 0.11523,-0.47266 z m -19.50195,0.47266 c -0.83466,-0.0619 -1.40662,0.6011 -1.7207,1.47461 -0.33234,0.92283 -0.46777,1.99491 -0.38477,2.97461 0.268,3.14867 0.55666,6.30357 1.0625,9.41992 0.66528,4.09954 2.45251,7.82859 4.46094,11.41016 0.83996,1.49725 2.08683,2.80112 3.30078,4.04492 1.23195,1.2623 3.01846,1.30216 3.51367,0.1875 0.37926,-0.85414 0.70141,-1.82806 0.69141,-2.74414 -0.032,-3.10078 -0.22542,-6.20082 -0.35547,-9.30078 -1.57823,-5.59777 -3.87155,-10.74402 -7.26562,-15.36914 -0.56107,-0.76499 -1.53041,-1.26812 -2.38086,-1.77539 -0.3367,-0.20067 -0.64366,-0.30163 -0.92188,-0.32227 z m 17.52344,5.53516 1.42187,2.34961 c -0.70542,0.15917 -1.23676,-0.0557 -1.59179,-0.64258 -0.23696,-0.39174 -0.37492,-0.84134 -0.41602,-1.35157 z m -80.9707,1.34375 c 0.47586,-0.017 0.99017,0.0841 1.51562,0.31836 1.86725,0.83232 3.62414,2.02292 5.2207,3.31445 1.63917,1.32546 3.06142,2.93209 4.49024,4.49609 0.27449,0.29996 0.36822,1.11926 0.15625,1.45313 -2.23483,3.5253 -3.629,7.29405 -3.7168,11.50976 -0.0125,0.59977 -0.27428,1.19313 -0.5664,2.37891 -1.27107,-1.31297 -2.46403,-2.16745 -3.14844,-3.32227 -1.88267,-3.17593 -3.84707,-6.36156 -5.20508,-9.77148 -0.92124,-2.31333 -1.10591,-5.0038 -1.19141,-7.54102 -0.0568,-1.68173 1.01773,-2.78485 2.44532,-2.83593 z m 25.33984,1.71093 c -0.3786,0.008 -0.75988,0.0267 -1.14649,0.0566 -1.70377,0.13102 -3.36557,0.82499 -5.11328,1.27735 2.95542,0.70438 5.81534,1.01294 8.36719,2.06836 6.10027,2.52192 10.66629,7.02051 14.14258,12.52734 1.72774,2.73831 3.09359,5.74517 4.31641,8.75391 2.28459,5.61925 3.42415,11.49467 3.21289,17.5957 -0.0357,1.02316 0.002,2.05099 0.006,3.07617 0.10605,0.0121 0.21216,0.024 0.31835,0.0371 0.67244,-2.27781 1.63081,-4.51517 1.96094,-6.8418 0.84092,-5.92619 0.48988,-11.80135 -1.53711,-17.51562 -2.05581,-5.79687 -4.97692,-10.95828 -9.71679,-15.07617 -4.33972,-3.77019 -9.13162,-6.07949 -14.81055,-5.95899 z m 61.95117,2.41993 c -0.071,-0.007 -0.13072,0.006 -0.17969,0.0351 l -0.11718,0.4707 c 0.23655,0.39108 0.64939,0.40973 1.23632,0.0547 -0.41316,-0.35132 -0.72644,-0.53897 -0.93945,-0.56054 z m -4.62109,2.3457 c 0.0443,-0.0101 0.0856,-0.01 0.125,0 0.0788,0.0191 0.14779,0.0778 0.20703,0.17578 0.31392,0.0767 0.52997,0.21429 0.64844,0.41016 l 0.17773,0.29296 -0.29297,0.17774 c -0.19586,0.1185 -0.44931,0.1399 -0.76367,0.0625 -0.19587,0.11849 -0.35418,0.0767 -0.47266,-0.11914 -0.11848,-0.19586 -0.0811,-0.35097 0.11524,-0.46875 -0.11849,-0.19587 -0.0806,-0.35222 0.11523,-0.47071 0.049,-0.0296 0.0963,-0.0504 0.14063,-0.0605 z m 5.11914,0.50976 c 0.0439,-0.0101 0.0858,-0.01 0.125,0 0.0785,0.0193 0.14779,0.0779 0.20703,0.17578 0.31395,0.0767 0.52996,0.21428 0.64844,0.41016 l 0.17968,0.29492 -0.29492,0.17774 c -0.19586,0.1185 -0.44932,0.1399 -0.76367,0.0625 -0.19588,0.11848 -0.35223,0.0787 -0.4707,-0.11719 -0.11849,-0.19588 -0.0807,-0.35418 0.11523,-0.47266 -0.11848,-0.19587 -0.0806,-0.35222 0.11524,-0.4707 0.049,-0.0296 0.0948,-0.0504 0.13867,-0.0606 z m -3.16211,0.73633 c 0.15461,0.006 0.32033,0.15541 0.49805,0.44922 0.55132,0.46914 0.88543,0.80217 1.0039,0.99805 l 0.17774,0.29297 -0.29297,0.17773 c -0.19588,0.11849 -0.51052,0.0428 -0.94336,-0.23047 -0.43284,-0.27326 -0.70769,-0.50725 -0.82617,-0.70312 v -0.002 c -0.11806,-0.19519 -0.0802,-0.34957 0.11523,-0.46875 -0.11848,-0.19588 -0.0806,-0.35418 0.11524,-0.47265 0.049,-0.0296 0.1008,-0.043 0.15234,-0.041 z m -69.12305,12.28906 c 0.22747,-0.0245 0.53642,0.0914 0.92774,0.34961 0.52177,0.34426 0.85458,0.64136 1,0.89258 0.1449,0.25034 0.10348,0.45422 -0.12696,0.61328 0.14542,0.25122 0.10202,0.45509 -0.1289,0.61328 -0.23094,0.1582 -0.49042,-0.0112 -0.78125,-0.51367 -0.66718,-0.59548 -1.07333,-1.01832 -1.21875,-1.26953 l -0.21875,-0.37695 0.3457,-0.23633 c 0.0577,-0.0395 0.12535,-0.0641 0.20117,-0.0723 z m -2.08984,2.02149 c 0.094,0.0232 0.1773,0.097 0.25,0.22266 0.14542,0.25121 0.10202,0.45704 -0.12891,0.61523 0.14541,0.25122 0.10398,0.45509 -0.12695,0.61328 -0.23093,0.1582 -0.41904,0.11253 -0.56445,-0.13867 -0.37584,-0.0922 -0.63584,-0.26441 -0.78125,-0.51563 l -0.21875,-0.3789 0.3457,-0.23633 c 0.23094,-0.1583 0.53379,-0.19076 0.91016,-0.0977 0.11545,-0.0791 0.22048,-0.10721 0.31445,-0.084 z m 6.11328,0.54492 c 0.0942,0.0237 0.17729,0.099 0.25,0.22461 0.1454,0.25123 0.10448,0.45402 -0.12695,0.61133 0.14541,0.25123 0.10203,0.4551 -0.12891,0.61328 -0.23093,0.15819 -0.41904,0.11256 -0.56445,-0.13867 -0.37583,-0.0922 -0.63779,-0.2644 -0.78321,-0.51563 l -0.21679,-0.37695 0.3457,-0.23633 c 0.23093,-0.1583 0.53382,-0.19065 0.91016,-0.0977 0.11547,-0.0791 0.22023,-0.10764 0.31445,-0.084 z m -4.77539,1.56055 c 0.145,0.25037 0.17534,0.58082 0.0898,0.99023 0.43574,0.75279 1.00137,0.89199 1.69336,0.41797 l 1.03711,-0.71094 c 0.29032,0.50158 0.0767,1.52573 -0.64062,3.06836 l -0.82032,1.08789 c 0.29082,0.50241 1.0863,0.48197 2.38477,-0.0566 -0.29032,-0.50158 -0.20521,-0.91073 0.25586,-1.22656 l 0.34766,-0.23828 c 0.1449,0.25034 -0.057,0.73959 -0.60352,1.46484 -0.77832,0.88397 -0.94745,1.70229 -0.51172,2.45508 l 0.87109,1.50586 c 0.29083,0.50246 0.46755,1.0835 0.52735,1.74414 l -2.42383,1.66016 v 0.002 c 0.43573,0.7528 0.19246,1.44591 -0.73047,2.07813 v -0.004 l -2.76953,1.89648 c -0.52177,-0.34425 -0.85459,-0.64135 -1,-0.89257 -0.43574,-0.7528 -0.19245,-1.44592 0.73047,-2.07813 0.77747,-0.88301 1.25116,-1.73139 1.42187,-2.54883 0.52106,0.34407 0.93015,0.7656 1.22071,1.26758 0.29082,0.50244 0.66589,0.59512 1.12695,0.2793 l -0.43555,-0.75196 c -0.43543,-0.75233 -1.07557,-1.01883 -1.91211,-0.79687 -0.43624,-0.75367 -0.49338,-1.41342 -0.17773,-1.98047 0.0855,-0.40942 -0.0178,-0.86476 -0.30859,-1.36719 l -0.43555,-0.75195 c -0.69199,0.47399 -1.18378,0.45948 -1.47461,-0.043 -0.14542,-0.25123 -0.24879,-0.70657 -0.30859,-1.36719 -0.11929,-1.3204 0.0526,-2.13729 0.51367,-2.45312 l 0.34765,-0.23828 -0.65429,-1.13086 c -0.63342,1.13432 -1.1815,1.86189 -1.64258,2.17773 l -0.3457,0.23633 c -0.37585,-0.0922 -0.63583,-0.2644 -0.78125,-0.51562 -0.0599,-0.66065 0.0691,-1.27279 0.38476,-1.83985 l 0.3457,-0.23828 c 0.46186,-0.31637 1.14227,-0.25727 2.03907,0.17969 1.52941,-0.69682 2.40773,-1.12304 2.63867,-1.28125 z m -1.0625,6.51367 c 0.83822,-0.22335 1.37257,-0.41212 1.60351,-0.57031 0.23093,-0.15819 0.38911,-0.44217 0.47461,-0.85157 l -0.21875,-0.37695 -0.5664,-0.13867 c -0.37635,-0.093 -0.79479,0.0201 -1.25586,0.33594 -0.46064,0.31556 -0.47221,0.84891 -0.0371,1.60156 z m -0.0352,-4.44336 c -0.24576,-0.007 -0.54072,0.10674 -0.88672,0.34375 0.66665,0.59456 1.11282,0.81444 1.34375,0.65625 l 0.13086,-0.61328 c -0.14516,-0.25079 -0.34212,-0.37972 -0.58789,-0.38672 z m 6.74024,4.91016 c 0.55312,0.0163 0.99351,0.30845 1.32031,0.87304 0.29082,0.50244 0.46559,1.08157 0.52539,1.74219 l -0.69141,0.47461 -1.74414,-3.01367 c 0.20936,-0.0557 0.40547,-0.0816 0.58985,-0.0762 z m -9.95118,1.92187 c 0.0721,-0.0124 0.13454,-0.0112 0.1875,0.002 0.0706,0.0176 0.12381,0.0583 0.16016,0.1211 l 0.21875,0.37695 c -0.0855,0.40941 -0.35925,0.77206 -0.82031,1.08789 -0.46106,0.31577 -0.76474,0.34889 -0.91016,0.0977 l 0.34766,-0.23828 c -0.29031,-0.50157 -0.32222,-0.83118 -0.0918,-0.99024 0.38925,-0.26663 0.69189,-0.41978 0.9082,-0.45703 z m 9.9375,2.49024 0.21876,0.37695 0.3457,-0.23633 c 0.1449,0.25035 -0.0569,0.73961 -0.60352,1.46484 1.58878,-0.0371 2.52947,0.19288 2.82032,0.69532 0.29075,0.50245 0.34992,1.16218 0.17968,1.98047 -1.17914,1.85977 -1.56256,3.69982 -1.15234,5.52148 l 0.6914,-0.47266 c 0.92295,-0.63225 1.94845,-0.80806 3.07618,-0.52929 l 0.6914,-0.47461 c 0.23094,-0.15819 0.12909,-0.6144 -0.30664,-1.36719 l -0.65429,-1.12891 c -0.46105,0.31587 -0.76475,0.34887 -0.91016,0.0977 l -0.2168,-0.37695 c 0.23093,-0.15818 0.6052,-0.065 1.12696,0.27929 0.92373,-0.63277 1.60333,-0.57116 2.03906,0.18164 l 0.21875,0.375 c 0.35022,1.1622 0.81534,2.24599 1.39648,3.25 0.69199,-0.47402 1.11045,-0.58521 1.25586,-0.33398 l 0.21875,0.375 -0.3457,0.23828 c -0.23093,0.15819 -0.60714,0.065 -1.12891,-0.2793 -0.46107,0.31584 -0.71668,1.54493 -0.76758,3.6836 l -0.6914,0.47265 c -0.69199,0.474 -1.25567,0.33484 -1.69141,-0.41796 l -0.87305,-1.50782 c -0.58114,-1.00407 -1.40626,-1.31457 -2.4746,-0.93359 0.8973,0.43785 1.41904,0.78197 1.56445,1.0332 0.43576,0.75279 0.45389,1.61729 0.0527,2.59375 l -1.38476,0.94727 c -0.6928,0.47457 -1.37436,0.41296 -2.04102,-0.18164 -0.92372,0.63274 -1.52754,0.6997 -1.81836,0.19726 l -0.5664,-0.14062 c -0.145,-0.25036 -0.17339,-0.57887 -0.0879,-0.98828 0.0855,-0.4094 0.24172,-0.69533 0.47265,-0.85352 l 0.56446,0.14258 c 0.23093,-0.1582 0.70898,0.38734 1.43554,1.64258 0.92373,-0.63277 1.09482,-1.45106 0.51367,-2.45508 -0.43577,-0.75279 -0.42395,-1.28574 0.0371,-1.60156 0.23093,-0.1582 0.65134,-0.27134 1.25782,-0.33594 l -0.6543,-1.12891 c -0.31522,0.56598 -0.58964,0.93184 -0.82031,1.08985 -0.692,0.47402 -1.25568,0.33286 -1.69141,-0.41992 l -0.43555,-0.75196 c -0.2048,-0.91098 -0.45134,-1.61865 -0.74218,-2.12109 -0.29083,-0.50245 -0.62561,-0.79763 -1.00196,-0.89063 -0.1454,-0.25122 -0.33354,-0.2988 -0.56445,-0.14062 -0.23094,0.15819 -0.35947,0.77316 -0.38477,1.8418 -0.31565,0.56704 -0.58938,0.92971 -0.82031,1.08789 -0.23094,0.15819 -0.67903,-0.0616 -1.3457,-0.65625 l -0.002,0.004 c -9.9e-4,-0.001 -9.5e-4,-9e-4 -0.002,-0.004 0.002,0 0.003,-3.2e-4 0.004,0 0.5469,-0.72401 0.74686,-1.21185 0.60156,-1.4629 l -0.34766,0.23633 -0.21679,-0.375 c -0.4603,0.3153 -0.47448,0.84884 -0.041,1.59961 -0.52001,-0.34383 -0.92468,-0.76629 -1.21484,-1.26758 -0.14541,-0.25121 -0.10203,-0.45705 0.1289,-0.61523 0.0855,-0.40941 0.5888,-0.92834 1.51172,-1.56055 0.69199,-0.47402 1.68787,-0.98285 2.98633,-1.52148 l 0.69336,-0.47266 c 0.69199,-0.47401 1.31084,-1.07358 1.85742,-1.79883 -0.43575,-0.75279 -0.422,-1.28963 0.0391,-1.60546 z m -0.88476,4.05859 c -0.17529,0.0102 -0.3669,0.0423 -0.57617,0.0977 l 0.21679,0.37695 c 0.29081,0.50245 0.3941,0.95777 0.3086,1.36719 -0.23089,0.15818 -0.27237,0.364 -0.12696,0.61523 l 0.91016,-0.0977 c 0.46105,-0.31582 0.66136,-0.8042 0.60156,-1.46484 l -0.21679,-0.37695 c -0.21774,-0.37621 -0.59132,-0.54815 -1.11719,-0.51758 z m 6.86523,5.65039 c -0.0944,-0.023 -0.19898,0.005 -0.31445,0.084 -0.23092,0.15818 -0.38716,0.44019 -0.47266,0.84961 l 0.2168,0.37696 c 0.14491,0.25033 0.40686,0.42262 0.7832,0.51562 l 0.69141,-0.47461 c 0.23094,-0.15819 0.27381,-0.36294 0.12891,-0.61328 -0.14492,-0.25035 -0.40491,-0.42262 -0.78125,-0.51562 -0.0727,-0.1256 -0.15759,-0.19969 -0.25196,-0.22266 z m 6.11524,0.54297 c 0.094,0.0232 0.17534,0.099 0.24805,0.22461 0.37584,0.0922 0.6378,0.26441 0.7832,0.51562 0.14493,0.25038 0.10346,0.45421 -0.12696,0.61328 l -0.69335,0.47461 c -0.37583,-0.0922 -0.63779,-0.26439 -0.78321,-0.51562 l -0.21679,-0.37695 c 0.0855,-0.40941 0.24365,-0.69339 0.47461,-0.85157 0.11545,-0.0791 0.22048,-0.10721 0.31445,-0.084 z m -2.99414,2.61133 c 0.072,-0.0123 0.13465,-0.0111 0.1875,0.002 0.0705,0.0174 0.12383,0.0583 0.16015,0.12109 l 0.21875,0.375 -0.34765,0.23829 c -0.23093,0.15818 -0.60564,0.0647 -1.125,-0.28126 0.38865,-0.26604 0.69036,-0.41813 0.90625,-0.45507 z m -1.33594,3.47656 c 0.2548,0.0227 0.63281,0.25717 1.13281,0.70312 0.37583,0.0922 0.63583,0.26441 0.78125,0.51563 0.29087,0.50245 0.31948,0.83173 0.0899,0.99023 l -0.34571,0.23829 -0.78125,-0.51563 c -0.52176,-0.34426 -0.85459,-0.64135 -1,-0.89258 l -0.21875,-0.37695 0.12891,-0.61328 c 0.0577,-0.0396 0.12796,-0.0564 0.21289,-0.0488 z m -3.32422,0.73242 c 0.094,0.0232 0.17729,0.0971 0.25,0.22266 0.37584,0.0922 0.63779,0.2644 0.7832,0.51562 0.14491,0.25034 0.10153,0.45618 -0.1289,0.61524 l -0.69141,0.47265 c -0.37584,-0.0922 -0.63778,-0.26439 -0.7832,-0.51562 l -0.2168,-0.375 c 0.0855,-0.40941 0.24174,-0.69337 0.47266,-0.85156 0.11547,-0.0791 0.22048,-0.10722 0.31445,-0.084 z m -2.52148,1.69531 c 0.25436,0.023 0.63088,0.25716 1.13086,0.70313 0.37585,0.0921 0.63778,0.2644 0.7832,0.51562 0.29032,0.50157 0.31883,0.83204 0.0879,0.99024 -0.23093,0.15818 -0.60323,0.065 -1.125,-0.2793 -0.66666,-0.5946 -1.07579,-1.01723 -1.2207,-1.26758 l 0.13086,-0.61523 c 0.0577,-0.0396 0.1281,-0.0546 0.21289,-0.0469 z m 3.83007,0.56446 c 0.094,0.0232 0.17732,0.097 0.25,0.22265 0.37585,0.0922 0.63779,0.2644 0.78321,0.51563 0.14542,0.25121 0.10008,0.45509 -0.13086,0.61328 l -0.68945,0.47461 c -0.37584,-0.0922 -0.63779,-0.2644 -0.78321,-0.51563 l -0.21875,-0.37695 c 0.0855,-0.40942 0.24368,-0.69142 0.47461,-0.84961 0.11547,-0.0791 0.22049,-0.10721 0.31445,-0.084 z"
           style="stroke:none;stroke-width:2" />
      </g>
      <path
         style="color:#000000;font-style:normal;font-variant:normal;font-weight:normal;font-stretch:normal;font-size:medium;line-height:normal;font-family:sans-serif;font-variant-ligatures:normal;font-variant-position:normal;font-variant-caps:normal;font-variant-numeric:normal;font-variant-alternates:normal;font-feature-settings:normal;text-indent:0;text-align:start;text-decoration:none;text-decoration-line:none;text-decoration-style:solid;text-decoration-color:#000000;letter-spacing:normal;word-spacing:normal;text-transform:none;writing-mode:lr-tb;direction:ltr;text-orientation:mixed;dominant-baseline:auto;baseline-shift:baseline;text-anchor:start;white-space:normal;shape-padding:0;clip-rule:nonzero;display:inline;overflow:visible;visibility:visible;opacity:1;isolation:auto;mix-blend-mode:normal;color-interpolation:sRGB;color-interpolation-filters:linearRGB;solid-color:#000000;solid-opacity:1;vector-effect:none;fill:#ffffff;fill-opacity:1;fill-rule:nonzero;stroke:none;stroke-width:3.32500005;stroke-linecap:butt;stroke-linejoin:miter;stroke-miterlimit:4;stroke-dasharray:none;stroke-dashoffset:0;stroke-opacity:1;color-rendering:auto;image-rendering:auto;shape-rendering:auto;text-rendering:auto;enable-background:accumulate"
         d="m 612.42607,299.29735 2.16024,0.42238 c 1.96731,-19.29195 20.81341,-31.80378 29.04504,-33.9836 -12.58321,2.57019 -28.71042,19.39024 -31.20528,33.56122 z"
         id="path4790" />
      <path
         id="path5049"
         d="m 592.26624,313.83499 2.52686,-2.19868 c -5.26431,-11.5023 4.41304,-33.22016 12.25859,-40.47595 -9.73973,9.5468 -20.31874,29.45678 -14.78545,42.67463 z"
         style="color:#000000;font-style:normal;font-variant:normal;font-weight:normal;font-stretch:normal;font-size:medium;line-height:normal;font-family:sans-serif;font-variant-ligatures:normal;font-variant-position:normal;font-variant-caps:normal;font-variant-numeric:normal;font-variant-alternates:normal;font-feature-settings:normal;text-indent:0;text-align:start;text-decoration:none;text-decoration-line:none;text-decoration-style:solid;text-decoration-color:#000000;letter-spacing:normal;word-spacing:normal;text-transform:none;writing-mode:lr-tb;direction:ltr;text-orientation:mixed;dominant-baseline:auto;baseline-shift:baseline;text-anchor:start;white-space:normal;shape-padding:0;clip-rule:nonzero;display:inline;overflow:visible;visibility:visible;opacity:1;isolation:auto;mix-blend-mode:normal;color-interpolation:sRGB;color-interpolation-filters:linearRGB;solid-color:#000000;solid-opacity:1;vector-effect:none;fill:#ffffff;fill-opacity:1;fill-rule:nonzero;stroke:none;stroke-width:3.32500005;stroke-linecap:butt;stroke-linejoin:miter;stroke-miterlimit:4;stroke-dasharray:none;stroke-dashoffset:0;stroke-opacity:1;color-rendering:auto;image-rendering:auto;shape-rendering:auto;text-rendering:auto;enable-background:accumulate" />
    </g>
    <path
       id="path5047"
       d="m 176.98345,174.68155 -0.92935,-0.74622 c 0,0 -16.93324,17.45793 -26.48031,21.84382 4.40768,-1.44881 12.31444,-7.73937 18.50692,-13.0779 5.01312,-4.32182 8.90274,-8.0197 8.90274,-8.0197 z"
       style="color:#000000;font-style:normal;font-variant:normal;font-weight:normal;font-stretch:normal;font-size:medium;line-height:normal;font-family:sans-serif;font-variant-ligatures:normal;font-variant-position:normal;font-variant-caps:normal;font-variant-numeric:normal;font-variant-alternates:normal;font-feature-settings:normal;text-indent:0;text-align:start;text-decoration:none;text-decoration-line:none;text-decoration-style:solid;text-decoration-color:#000000;letter-spacing:normal;word-spacing:normal;text-transform:none;writing-mode:lr-tb;direction:ltr;text-orientation:mixed;dominant-baseline:auto;baseline-shift:baseline;text-anchor:start;white-space:normal;shape-padding:0;clip-rule:nonzero;display:inline;overflow:visible;visibility:visible;opacity:1;isolation:auto;mix-blend-mode:normal;color-interpolation:sRGB;color-interpolation-filters:linearRGB;solid-color:#000000;solid-opacity:1;vector-effect:none;fill:#ffffff;fill-opacity:1;fill-rule:nonzero;stroke:none;stroke-width:3.07698369;stroke-linecap:butt;stroke-linejoin:miter;stroke-miterlimit:4;stroke-dasharray:none;stroke-dashoffset:0;stroke-opacity:1;color-rendering:auto;image-rendering:auto;shape-rendering:auto;text-rendering:auto;enable-background:accumulate" />
    <path
       id="path5049-7"
       d="m 168.77264,150.38773 -1.8014,0.81906 c -4.99746,8.92712 -19.52242,21.01447 -30.63576,27.24343 13.64239,-5.3654 24.37325,-17.28567 32.43716,-28.06249 z"
       style="color:#000000;font-style:normal;font-variant:normal;font-weight:normal;font-stretch:normal;font-size:medium;line-height:normal;font-family:sans-serif;font-variant-ligatures:normal;font-variant-position:normal;font-variant-caps:normal;font-variant-numeric:normal;font-variant-alternates:normal;font-feature-settings:normal;text-indent:0;text-align:start;text-decoration:none;text-decoration-line:none;text-decoration-style:solid;text-decoration-color:#000000;letter-spacing:normal;word-spacing:normal;text-transform:none;writing-mode:lr-tb;direction:ltr;text-orientation:mixed;dominant-baseline:auto;baseline-shift:baseline;text-anchor:start;white-space:normal;shape-padding:0;clip-rule:nonzero;display:inline;overflow:visible;visibility:visible;opacity:1;isolation:auto;mix-blend-mode:normal;color-interpolation:sRGB;color-interpolation-filters:linearRGB;solid-color:#000000;solid-opacity:1;vector-effect:none;fill:#ffffff;fill-opacity:1;fill-rule:nonzero;stroke:none;stroke-width:3.07698369;stroke-linecap:butt;stroke-linejoin:miter;stroke-miterlimit:4;stroke-dasharray:none;stroke-dashoffset:0;stroke-opacity:1;color-rendering:auto;image-rendering:auto;shape-rendering:auto;text-rendering:auto;enable-background:accumulate" />
  </g>
</svg>
